G04 #@! TF.GenerationSoftware,KiCad,Pcbnew,8.0.6*
G04 #@! TF.CreationDate,2025-10-23T00:14:21-07:00*
G04 #@! TF.ProjectId,PCB_Business_Card,5043425f-4275-4736-996e-6573735f4361,rev?*
G04 #@! TF.SameCoordinates,Original*
G04 #@! TF.FileFunction,Legend,Bot*
G04 #@! TF.FilePolarity,Positive*
%FSLAX46Y46*%
G04 Gerber Fmt 4.6, Leading zero omitted, Abs format (unit mm)*
G04 Created by KiCad (PCBNEW 8.0.6) date 2025-10-23 00:14:21*
%MOMM*%
%LPD*%
G01*
G04 APERTURE LIST*
%ADD10C,0.000000*%
G04 APERTURE END LIST*
%LPC*%
D10*
G36*
X123562882Y-58499127D02*
G01*
X123562882Y-60162882D01*
X121899126Y-60162882D01*
X120235371Y-60162882D01*
X120235371Y-58499127D01*
X120235371Y-56835371D01*
X121899126Y-56835371D01*
X123562882Y-56835371D01*
X123562882Y-58499127D01*
G37*
G36*
X121344541Y-69590830D02*
G01*
X121344541Y-70145415D01*
X120789956Y-70145415D01*
X120235371Y-70145415D01*
X120235371Y-69590830D01*
X120235371Y-69036245D01*
X120789956Y-69036245D01*
X121344541Y-69036245D01*
X121344541Y-69590830D01*
G37*
G36*
X121344541Y-78464192D02*
G01*
X121344541Y-79018777D01*
X120789956Y-79018777D01*
X120235371Y-79018777D01*
X120235371Y-78464192D01*
X120235371Y-77909607D01*
X120789956Y-77909607D01*
X121344541Y-77909607D01*
X121344541Y-78464192D01*
G37*
G36*
X122453712Y-71809170D02*
G01*
X122453712Y-72363756D01*
X121899126Y-72363756D01*
X121344541Y-72363756D01*
X121344541Y-71809170D01*
X121344541Y-71254585D01*
X121899126Y-71254585D01*
X122453712Y-71254585D01*
X122453712Y-71809170D01*
G37*
G36*
X122453712Y-82900874D02*
G01*
X122453712Y-83455459D01*
X121899126Y-83455459D01*
X121344541Y-83455459D01*
X121344541Y-82900874D01*
X121344541Y-82346288D01*
X121899126Y-82346288D01*
X122453712Y-82346288D01*
X122453712Y-82900874D01*
G37*
G36*
X125781223Y-74027511D02*
G01*
X125781223Y-74582096D01*
X124117467Y-74582096D01*
X122453712Y-74582096D01*
X122453712Y-74027511D01*
X122453712Y-73472926D01*
X124117467Y-73472926D01*
X125781223Y-73472926D01*
X125781223Y-74027511D01*
G37*
G36*
X125781223Y-79573363D02*
G01*
X125781223Y-80127948D01*
X125226637Y-80127948D01*
X124672052Y-80127948D01*
X124672052Y-79573363D01*
X124672052Y-79018777D01*
X125226637Y-79018777D01*
X125781223Y-79018777D01*
X125781223Y-79573363D01*
G37*
G36*
X132436244Y-74582096D02*
G01*
X132436244Y-75691267D01*
X131881659Y-75691267D01*
X131327074Y-75691267D01*
X131327074Y-74582096D01*
X131327074Y-73472926D01*
X131881659Y-73472926D01*
X132436244Y-73472926D01*
X132436244Y-74582096D01*
G37*
G36*
X132436244Y-81791703D02*
G01*
X132436244Y-82346288D01*
X131881659Y-82346288D01*
X131327074Y-82346288D01*
X131327074Y-81791703D01*
X131327074Y-81237118D01*
X131881659Y-81237118D01*
X132436244Y-81237118D01*
X132436244Y-81791703D01*
G37*
G36*
X133545415Y-72918341D02*
G01*
X133545415Y-73472926D01*
X132990830Y-73472926D01*
X132436244Y-73472926D01*
X132436244Y-72918341D01*
X132436244Y-72363756D01*
X132990830Y-72363756D01*
X133545415Y-72363756D01*
X133545415Y-72918341D01*
G37*
G36*
X136872926Y-79573363D02*
G01*
X136872926Y-80127948D01*
X136318340Y-80127948D01*
X135763755Y-80127948D01*
X135763755Y-79573363D01*
X135763755Y-79018777D01*
X136318340Y-79018777D01*
X136872926Y-79018777D01*
X136872926Y-79573363D01*
G37*
G36*
X137982096Y-72918341D02*
G01*
X137982096Y-73472926D01*
X137427511Y-73472926D01*
X136872926Y-73472926D01*
X136872926Y-72918341D01*
X136872926Y-72363756D01*
X137427511Y-72363756D01*
X137982096Y-72363756D01*
X137982096Y-72918341D01*
G37*
G36*
X139091266Y-61826638D02*
G01*
X139091266Y-62381223D01*
X138536681Y-62381223D01*
X137982096Y-62381223D01*
X137982096Y-61826638D01*
X137982096Y-61272053D01*
X138536681Y-61272053D01*
X139091266Y-61272053D01*
X139091266Y-61826638D01*
G37*
G36*
X141309607Y-57389956D02*
G01*
X141309607Y-57944542D01*
X140755022Y-57944542D01*
X140200437Y-57944542D01*
X140200437Y-57389956D01*
X140200437Y-56835371D01*
X140755022Y-56835371D01*
X141309607Y-56835371D01*
X141309607Y-57389956D01*
G37*
G36*
X141309607Y-78464192D02*
G01*
X141309607Y-79018777D01*
X140755022Y-79018777D01*
X140200437Y-79018777D01*
X140200437Y-78464192D01*
X140200437Y-77909607D01*
X140755022Y-77909607D01*
X141309607Y-77909607D01*
X141309607Y-78464192D01*
G37*
G36*
X143527947Y-64044978D02*
G01*
X143527947Y-64599563D01*
X142973362Y-64599563D01*
X142418777Y-64599563D01*
X142418777Y-64044978D01*
X142418777Y-63490393D01*
X142973362Y-63490393D01*
X143527947Y-63490393D01*
X143527947Y-64044978D01*
G37*
G36*
X147964629Y-58499127D02*
G01*
X147964629Y-60162882D01*
X146300873Y-60162882D01*
X144637118Y-60162882D01*
X144637118Y-58499127D01*
X144637118Y-56835371D01*
X146300873Y-56835371D01*
X147964629Y-56835371D01*
X147964629Y-58499127D01*
G37*
G36*
X147964629Y-82900874D02*
G01*
X147964629Y-84564629D01*
X146300873Y-84564629D01*
X144637118Y-84564629D01*
X144637118Y-82900874D01*
X144637118Y-81237118D01*
X146300873Y-81237118D01*
X147964629Y-81237118D01*
X147964629Y-82900874D01*
G37*
G36*
X141309607Y-60717467D02*
G01*
X141309607Y-62381223D01*
X140755022Y-62381223D01*
X140200437Y-62381223D01*
X140200437Y-61272053D01*
X140200437Y-60162882D01*
X139645851Y-60162882D01*
X139091266Y-60162882D01*
X139091266Y-59608297D01*
X139091266Y-59053712D01*
X140200437Y-59053712D01*
X141309607Y-59053712D01*
X141309607Y-60717467D01*
G37*
G36*
X119680786Y-75691267D02*
G01*
X120235371Y-75691267D01*
X120235371Y-76245852D01*
X120235371Y-76800437D01*
X119680786Y-76800437D01*
X119126201Y-76800437D01*
X119126201Y-76245852D01*
X119126201Y-75691267D01*
X119680786Y-75691267D01*
G37*
G36*
X119126201Y-74582096D02*
G01*
X119126201Y-75691267D01*
X118571616Y-75691267D01*
X118017030Y-75691267D01*
X118017030Y-74582096D01*
X118017030Y-73472926D01*
X118571616Y-73472926D01*
X119126201Y-73472926D01*
X119126201Y-74582096D01*
G37*
G36*
X120789956Y-73472926D02*
G01*
X121344541Y-73472926D01*
X121344541Y-74027511D01*
X121344541Y-74582096D01*
X120789956Y-74582096D01*
X120235371Y-74582096D01*
X120235371Y-74027511D01*
X120235371Y-73472926D01*
X120789956Y-73472926D01*
G37*
G36*
X120235371Y-72918341D02*
G01*
X120235371Y-73472926D01*
X119680786Y-73472926D01*
X119126201Y-73472926D01*
X119126201Y-72918341D01*
X119126201Y-72363756D01*
X119680786Y-72363756D01*
X120235371Y-72363756D01*
X120235371Y-72918341D01*
G37*
G36*
X124117467Y-71254585D02*
G01*
X124672052Y-71254585D01*
X124672052Y-71809170D01*
X124672052Y-72363756D01*
X124117467Y-72363756D01*
X123562882Y-72363756D01*
X123562882Y-71809170D01*
X123562882Y-71254585D01*
X124117467Y-71254585D01*
G37*
G36*
X123562882Y-70145415D02*
G01*
X123562882Y-71254585D01*
X123008297Y-71254585D01*
X122453712Y-71254585D01*
X122453712Y-70145415D01*
X122453712Y-69036245D01*
X123008297Y-69036245D01*
X123562882Y-69036245D01*
X123562882Y-70145415D01*
G37*
G36*
X125781223Y-62381223D02*
G01*
X121899126Y-62381223D01*
X118017030Y-62381223D01*
X118017030Y-58499127D01*
X118017030Y-55726201D01*
X119126201Y-55726201D01*
X119126201Y-58499127D01*
X119126201Y-61272053D01*
X121899126Y-61272053D01*
X124672052Y-61272053D01*
X124672052Y-58499127D01*
X124672052Y-55726201D01*
X121899126Y-55726201D01*
X119126201Y-55726201D01*
X118017030Y-55726201D01*
X118017030Y-54617031D01*
X121899126Y-54617031D01*
X125781223Y-54617031D01*
X125781223Y-58499127D01*
X125781223Y-62381223D01*
G37*
G36*
X150182969Y-62381223D02*
G01*
X146300873Y-62381223D01*
X142418777Y-62381223D01*
X142418777Y-58499127D01*
X142418777Y-55726201D01*
X143527947Y-55726201D01*
X143527947Y-58499127D01*
X143527947Y-61272053D01*
X146300873Y-61272053D01*
X149073799Y-61272053D01*
X149073799Y-58499127D01*
X149073799Y-55726201D01*
X146300873Y-55726201D01*
X143527947Y-55726201D01*
X142418777Y-55726201D01*
X142418777Y-54617031D01*
X146300873Y-54617031D01*
X150182969Y-54617031D01*
X150182969Y-58499127D01*
X150182969Y-62381223D01*
G37*
G36*
X150182969Y-86782970D02*
G01*
X146300873Y-86782970D01*
X142418777Y-86782970D01*
X142418777Y-82900874D01*
X142418777Y-80127948D01*
X143527947Y-80127948D01*
X143527947Y-82900874D01*
X143527947Y-85673799D01*
X146300873Y-85673799D01*
X149073799Y-85673799D01*
X149073799Y-82900874D01*
X149073799Y-80127948D01*
X146300873Y-80127948D01*
X143527947Y-80127948D01*
X142418777Y-80127948D01*
X142418777Y-79018777D01*
X146300873Y-79018777D01*
X150182969Y-79018777D01*
X150182969Y-82900874D01*
X150182969Y-86782970D01*
G37*
G36*
X120235371Y-65154149D02*
G01*
X120235371Y-65708734D01*
X119680786Y-65708734D01*
X119126201Y-65708734D01*
X119126201Y-66263319D01*
X119126201Y-66817904D01*
X119680786Y-66817904D01*
X120235371Y-66817904D01*
X120235371Y-67372489D01*
X120235371Y-67927074D01*
X119680786Y-67927074D01*
X119126201Y-67927074D01*
X119126201Y-69590830D01*
X119126201Y-71254585D01*
X118571616Y-71254585D01*
X118017030Y-71254585D01*
X118017030Y-67927074D01*
X118017030Y-64599563D01*
X119126201Y-64599563D01*
X120235371Y-64599563D01*
X120235371Y-65154149D01*
G37*
G36*
X122453712Y-85119214D02*
G01*
X122453712Y-85673799D01*
X123008297Y-85673799D01*
X123562882Y-85673799D01*
X123562882Y-85119214D01*
X123562882Y-84564629D01*
X124117467Y-84564629D01*
X124672052Y-84564629D01*
X124672052Y-85119214D01*
X124672052Y-85673799D01*
X124117467Y-85673799D01*
X123562882Y-85673799D01*
X123562882Y-86228384D01*
X123562882Y-86782970D01*
X123008297Y-86782970D01*
X122453712Y-86782970D01*
X122453712Y-86228384D01*
X122453712Y-85673799D01*
X121899126Y-85673799D01*
X121344541Y-85673799D01*
X121344541Y-85119214D01*
X121344541Y-84564629D01*
X121899126Y-84564629D01*
X122453712Y-84564629D01*
X122453712Y-85119214D01*
G37*
G36*
X138536681Y-70145415D02*
G01*
X139091266Y-70145415D01*
X139091266Y-70700000D01*
X139091266Y-71254585D01*
X138536681Y-71254585D01*
X137982096Y-71254585D01*
X137982096Y-70700000D01*
X137982096Y-70145415D01*
X138536681Y-70145415D01*
G37*
G36*
X137427511Y-69036245D02*
G01*
X137982096Y-69036245D01*
X137982096Y-69590830D01*
X137982096Y-70145415D01*
X137427511Y-70145415D01*
X136872926Y-70145415D01*
X136872926Y-69590830D01*
X136872926Y-69036245D01*
X137427511Y-69036245D01*
G37*
G36*
X136872926Y-68481660D02*
G01*
X136872926Y-69036245D01*
X136318340Y-69036245D01*
X135763755Y-69036245D01*
X135763755Y-68481660D01*
X135763755Y-67927074D01*
X136318340Y-67927074D01*
X136872926Y-67927074D01*
X136872926Y-68481660D01*
G37*
G36*
X119680786Y-80127948D02*
G01*
X120235371Y-80127948D01*
X120235371Y-83455459D01*
X120235371Y-86782970D01*
X119680786Y-86782970D01*
X119126201Y-86782970D01*
X119126201Y-86228384D01*
X119126201Y-85673799D01*
X118571616Y-85673799D01*
X118017030Y-85673799D01*
X118017030Y-84564629D01*
X118017030Y-83455459D01*
X118571616Y-83455459D01*
X119126201Y-83455459D01*
X119126201Y-82900874D01*
X119126201Y-82346288D01*
X118571616Y-82346288D01*
X118017030Y-82346288D01*
X118017030Y-81791703D01*
X118017030Y-81237118D01*
X118571616Y-81237118D01*
X119126201Y-81237118D01*
X119126201Y-80682533D01*
X119126201Y-80127948D01*
X119680786Y-80127948D01*
G37*
G36*
X119126201Y-78464192D02*
G01*
X119126201Y-80127948D01*
X118571616Y-80127948D01*
X118017030Y-80127948D01*
X118017030Y-78464192D01*
X118017030Y-76800437D01*
X118571616Y-76800437D01*
X119126201Y-76800437D01*
X119126201Y-78464192D01*
G37*
G36*
X135763755Y-55726201D02*
G01*
X135763755Y-56835371D01*
X136318340Y-56835371D01*
X136872926Y-56835371D01*
X136872926Y-55726201D01*
X136872926Y-54617031D01*
X137427511Y-54617031D01*
X137982096Y-54617031D01*
X137982096Y-55171616D01*
X137982096Y-55726201D01*
X138536681Y-55726201D01*
X139091266Y-55726201D01*
X139091266Y-56835371D01*
X139091266Y-57944542D01*
X138536681Y-57944542D01*
X137982096Y-57944542D01*
X137982096Y-59053712D01*
X137982096Y-60162882D01*
X137427511Y-60162882D01*
X136872926Y-60162882D01*
X136872926Y-59608297D01*
X136872926Y-59053712D01*
X136318340Y-59053712D01*
X135763755Y-59053712D01*
X135763755Y-58499127D01*
X135763755Y-57944542D01*
X135209170Y-57944542D01*
X134654585Y-57944542D01*
X134654585Y-56280786D01*
X134654585Y-54617031D01*
X135209170Y-54617031D01*
X135763755Y-54617031D01*
X135763755Y-55726201D01*
G37*
G36*
X146855458Y-75691267D02*
G01*
X147964629Y-75691267D01*
X147964629Y-76245852D01*
X147964629Y-76800437D01*
X147410044Y-76800437D01*
X146855458Y-76800437D01*
X146855458Y-77355022D01*
X146855458Y-77909607D01*
X145746288Y-77909607D01*
X144637118Y-77909607D01*
X144637118Y-77355022D01*
X144637118Y-76800437D01*
X145191703Y-76800437D01*
X145746288Y-76800437D01*
X145746288Y-76245852D01*
X145746288Y-75691267D01*
X146855458Y-75691267D01*
G37*
G36*
X149073799Y-76800437D02*
G01*
X150182969Y-76800437D01*
X150182969Y-77355022D01*
X150182969Y-77909607D01*
X149073799Y-77909607D01*
X147964629Y-77909607D01*
X147964629Y-77355022D01*
X147964629Y-76800437D01*
X149073799Y-76800437D01*
G37*
G36*
X145746288Y-75136681D02*
G01*
X145746288Y-75691267D01*
X145191703Y-75691267D01*
X144637118Y-75691267D01*
X144637118Y-75136681D01*
X144637118Y-74582096D01*
X145191703Y-74582096D01*
X145746288Y-74582096D01*
X145746288Y-75136681D01*
G37*
G36*
X130217904Y-82346288D02*
G01*
X131327074Y-82346288D01*
X131327074Y-83455459D01*
X131327074Y-84564629D01*
X131881659Y-84564629D01*
X132436244Y-84564629D01*
X132436244Y-84010044D01*
X132436244Y-83455459D01*
X132990830Y-83455459D01*
X133545415Y-83455459D01*
X133545415Y-84564629D01*
X133545415Y-85673799D01*
X132990830Y-85673799D01*
X132436244Y-85673799D01*
X132436244Y-86228384D01*
X132436244Y-86782970D01*
X131327074Y-86782970D01*
X130217904Y-86782970D01*
X130217904Y-86228384D01*
X130217904Y-85673799D01*
X129663319Y-85673799D01*
X129108733Y-85673799D01*
X129108733Y-85119214D01*
X129108733Y-84564629D01*
X128554148Y-84564629D01*
X127999563Y-84564629D01*
X127999563Y-85673799D01*
X127999563Y-86782970D01*
X126890393Y-86782970D01*
X125781223Y-86782970D01*
X125781223Y-85119214D01*
X125781223Y-83455459D01*
X127444978Y-83455459D01*
X129108733Y-83455459D01*
X129108733Y-84010044D01*
X129108733Y-84564629D01*
X129663319Y-84564629D01*
X130217904Y-84564629D01*
X130217904Y-84010044D01*
X130217904Y-83455459D01*
X129663319Y-83455459D01*
X129108733Y-83455459D01*
X129108733Y-82900874D01*
X129108733Y-82346288D01*
X130217904Y-82346288D01*
G37*
G36*
X131327074Y-79018777D02*
G01*
X131881659Y-79018777D01*
X132436244Y-79018777D01*
X132436244Y-77909607D01*
X132436244Y-76800437D01*
X132990830Y-76800437D01*
X133545415Y-76800437D01*
X133545415Y-77355022D01*
X133545415Y-77909607D01*
X134100000Y-77909607D01*
X134654585Y-77909607D01*
X134654585Y-78464192D01*
X134654585Y-79018777D01*
X134100000Y-79018777D01*
X133545415Y-79018777D01*
X133545415Y-79573363D01*
X133545415Y-80127948D01*
X134654585Y-80127948D01*
X135763755Y-80127948D01*
X135763755Y-80682533D01*
X135763755Y-81237118D01*
X136318340Y-81237118D01*
X136872926Y-81237118D01*
X136872926Y-80682533D01*
X136872926Y-80127948D01*
X137427511Y-80127948D01*
X137982096Y-80127948D01*
X137982096Y-79018777D01*
X137982096Y-77909607D01*
X138536681Y-77909607D01*
X139091266Y-77909607D01*
X139091266Y-79018777D01*
X139091266Y-80127948D01*
X139645851Y-80127948D01*
X140200437Y-80127948D01*
X140200437Y-80682533D01*
X140200437Y-81237118D01*
X139645851Y-81237118D01*
X139091266Y-81237118D01*
X139091266Y-81791703D01*
X139091266Y-82346288D01*
X139645851Y-82346288D01*
X140200437Y-82346288D01*
X140200437Y-81791703D01*
X140200437Y-81237118D01*
X140755022Y-81237118D01*
X141309607Y-81237118D01*
X141309607Y-81791703D01*
X141309607Y-82346288D01*
X140755022Y-82346288D01*
X140200437Y-82346288D01*
X140200437Y-82900874D01*
X140200437Y-83455459D01*
X139645851Y-83455459D01*
X139091266Y-83455459D01*
X139091266Y-84010044D01*
X139091266Y-84564629D01*
X138536681Y-84564629D01*
X137982096Y-84564629D01*
X137982096Y-85119214D01*
X137982096Y-85673799D01*
X137982096Y-86782970D01*
X136872926Y-86782970D01*
X135763755Y-86782970D01*
X135763755Y-86228384D01*
X135763755Y-85673799D01*
X135209170Y-85673799D01*
X134654585Y-85673799D01*
X134654585Y-84564629D01*
X135763755Y-84564629D01*
X135763755Y-85119214D01*
X135763755Y-85673799D01*
X136318340Y-85673799D01*
X136872926Y-85673799D01*
X136872926Y-85119214D01*
X136872926Y-84564629D01*
X136318340Y-84564629D01*
X135763755Y-84564629D01*
X134654585Y-84564629D01*
X134654585Y-83455459D01*
X134100000Y-83455459D01*
X133545415Y-83455459D01*
X133545415Y-82346288D01*
X135763755Y-82346288D01*
X135763755Y-82900874D01*
X135763755Y-83455459D01*
X136318340Y-83455459D01*
X136872926Y-83455459D01*
X136872926Y-84010044D01*
X136872926Y-84564629D01*
X137427511Y-84564629D01*
X137982096Y-84564629D01*
X137982096Y-82900874D01*
X137982096Y-81237118D01*
X137427511Y-81237118D01*
X136872926Y-81237118D01*
X136872926Y-81791703D01*
X136872926Y-82346288D01*
X136318340Y-82346288D01*
X135763755Y-82346288D01*
X133545415Y-82346288D01*
X133545415Y-81237118D01*
X132990830Y-81237118D01*
X132436244Y-81237118D01*
X132436244Y-80682533D01*
X132436244Y-80127948D01*
X131881659Y-80127948D01*
X131327074Y-80127948D01*
X131327074Y-79573363D01*
X131327074Y-79018777D01*
X130772489Y-79018777D01*
X130217904Y-79018777D01*
X130217904Y-79573363D01*
X130217904Y-80127948D01*
X129663319Y-80127948D01*
X129108733Y-80127948D01*
X129108733Y-79573363D01*
X129108733Y-79018777D01*
X128554148Y-79018777D01*
X127999563Y-79018777D01*
X127999563Y-79573363D01*
X127999563Y-80127948D01*
X128554148Y-80127948D01*
X129108733Y-80127948D01*
X129108733Y-81237118D01*
X129108733Y-82346288D01*
X126890393Y-82346288D01*
X124672052Y-82346288D01*
X124672052Y-82900874D01*
X124672052Y-83455459D01*
X124117467Y-83455459D01*
X123562882Y-83455459D01*
X123562882Y-82900874D01*
X123562882Y-82346288D01*
X123008297Y-82346288D01*
X122453712Y-82346288D01*
X122453712Y-81791703D01*
X122453712Y-81237118D01*
X121899126Y-81237118D01*
X121344541Y-81237118D01*
X121344541Y-80682533D01*
X121344541Y-80127948D01*
X121899126Y-80127948D01*
X122453712Y-80127948D01*
X122453712Y-79018777D01*
X122453712Y-77909607D01*
X123562882Y-77909607D01*
X123562882Y-79573363D01*
X123562882Y-81237118D01*
X125226637Y-81237118D01*
X126890393Y-81237118D01*
X126890393Y-79573363D01*
X126890393Y-77909607D01*
X125226637Y-77909607D01*
X123562882Y-77909607D01*
X122453712Y-77909607D01*
X121899126Y-77909607D01*
X121344541Y-77909607D01*
X121344541Y-76800437D01*
X121344541Y-75691267D01*
X121899126Y-75691267D01*
X122453712Y-75691267D01*
X122453712Y-76245852D01*
X122453712Y-76800437D01*
X124672052Y-76800437D01*
X126890393Y-76800437D01*
X127999563Y-76800437D01*
X127999563Y-77355022D01*
X127999563Y-77909607D01*
X129108733Y-77909607D01*
X130217904Y-77909607D01*
X130217904Y-77355022D01*
X130217904Y-76800437D01*
X129108733Y-76800437D01*
X127999563Y-76800437D01*
X126890393Y-76800437D01*
X126890393Y-75136681D01*
X126890393Y-73472926D01*
X126335808Y-73472926D01*
X125781223Y-73472926D01*
X125781223Y-72363756D01*
X125781223Y-71254585D01*
X126335808Y-71254585D01*
X126890393Y-71254585D01*
X126890393Y-70700000D01*
X126890393Y-70145415D01*
X127444978Y-70145415D01*
X127999563Y-70145415D01*
X127999563Y-70700000D01*
X127999563Y-71254585D01*
X129108733Y-71254585D01*
X130217904Y-71254585D01*
X130217904Y-70700000D01*
X130217904Y-70145415D01*
X130772489Y-70145415D01*
X131327074Y-70145415D01*
X131327074Y-70700000D01*
X131327074Y-71254585D01*
X131881659Y-71254585D01*
X132436244Y-71254585D01*
X132436244Y-71809170D01*
X132436244Y-72363756D01*
X131327074Y-72363756D01*
X130217904Y-72363756D01*
X130217904Y-72918341D01*
X130217904Y-73472926D01*
X129663319Y-73472926D01*
X129108733Y-73472926D01*
X129108733Y-72918341D01*
X129108733Y-72363756D01*
X128554148Y-72363756D01*
X127999563Y-72363756D01*
X127999563Y-74027511D01*
X127999563Y-75691267D01*
X128554148Y-75691267D01*
X129108733Y-75691267D01*
X129108733Y-75136681D01*
X129108733Y-74582096D01*
X129663319Y-74582096D01*
X130217904Y-74582096D01*
X130217904Y-75136681D01*
X130217904Y-75691267D01*
X130772489Y-75691267D01*
X131327074Y-75691267D01*
X131327074Y-77355022D01*
X131327074Y-79018777D01*
G37*
G36*
X140200437Y-84564629D02*
G01*
X141309607Y-84564629D01*
X141309607Y-85119214D01*
X141309607Y-85673799D01*
X140755022Y-85673799D01*
X140200437Y-85673799D01*
X140200437Y-86228384D01*
X140200437Y-86782970D01*
X139645851Y-86782970D01*
X139091266Y-86782970D01*
X139091266Y-85673799D01*
X139091266Y-84564629D01*
X140200437Y-84564629D01*
G37*
G36*
X142418777Y-74027511D02*
G01*
X142418777Y-74582096D01*
X141864192Y-74582096D01*
X141309607Y-74582096D01*
X141309607Y-75136681D01*
X141309607Y-75691267D01*
X141864192Y-75691267D01*
X142418777Y-75691267D01*
X142418777Y-75136681D01*
X142418777Y-74582096D01*
X142973362Y-74582096D01*
X143527947Y-74582096D01*
X143527947Y-75136681D01*
X143527947Y-75691267D01*
X142973362Y-75691267D01*
X142418777Y-75691267D01*
X142418777Y-76245852D01*
X142418777Y-76800437D01*
X142973362Y-76800437D01*
X143527947Y-76800437D01*
X143527947Y-77355022D01*
X143527947Y-77909607D01*
X142418777Y-77909607D01*
X141309607Y-77909607D01*
X141309607Y-76800437D01*
X141309607Y-75691267D01*
X140755022Y-75691267D01*
X140200437Y-75691267D01*
X140200437Y-76245852D01*
X140200437Y-76800437D01*
X139091266Y-76800437D01*
X137982096Y-76800437D01*
X137982096Y-77355022D01*
X137982096Y-77909607D01*
X136872926Y-77909607D01*
X135763755Y-77909607D01*
X135763755Y-77355022D01*
X135763755Y-76800437D01*
X136318340Y-76800437D01*
X136872926Y-76800437D01*
X136872926Y-76245852D01*
X136872926Y-75691267D01*
X136318340Y-75691267D01*
X135763755Y-75691267D01*
X135763755Y-76245852D01*
X135763755Y-76800437D01*
X134654585Y-76800437D01*
X133545415Y-76800437D01*
X133545415Y-75691267D01*
X133545415Y-74582096D01*
X135763755Y-74582096D01*
X137982096Y-74582096D01*
X137982096Y-75136681D01*
X137982096Y-75691267D01*
X138536681Y-75691267D01*
X139091266Y-75691267D01*
X139091266Y-75136681D01*
X139091266Y-74582096D01*
X139645851Y-74582096D01*
X140200437Y-74582096D01*
X140200437Y-74027511D01*
X140200437Y-73472926D01*
X141309607Y-73472926D01*
X142418777Y-73472926D01*
X142418777Y-74027511D01*
G37*
G36*
X130217904Y-69590830D02*
G01*
X130217904Y-70145415D01*
X129108733Y-70145415D01*
X127999563Y-70145415D01*
X127999563Y-69590830D01*
X127999563Y-69036245D01*
X129108733Y-69036245D01*
X130217904Y-69036245D01*
X130217904Y-69590830D01*
G37*
G36*
X149073799Y-70145415D02*
G01*
X150182969Y-70145415D01*
X150182969Y-72363756D01*
X150182969Y-74582096D01*
X147964629Y-74582096D01*
X145746288Y-74582096D01*
X145746288Y-74027511D01*
X145746288Y-73472926D01*
X146855458Y-73472926D01*
X147964629Y-73472926D01*
X147964629Y-71809170D01*
X147964629Y-70145415D01*
X149073799Y-70145415D01*
G37*
G36*
X143527947Y-72363756D02*
G01*
X144637118Y-72363756D01*
X144637118Y-72918341D01*
X144637118Y-73472926D01*
X143527947Y-73472926D01*
X142418777Y-73472926D01*
X142418777Y-72918341D01*
X142418777Y-72363756D01*
X143527947Y-72363756D01*
G37*
G36*
X132436244Y-56835371D02*
G01*
X131881659Y-56835371D01*
X131327074Y-56835371D01*
X131327074Y-57389956D01*
X131327074Y-57944542D01*
X130772489Y-57944542D01*
X130217904Y-57944542D01*
X130217904Y-58499127D01*
X130217904Y-59053712D01*
X130772489Y-59053712D01*
X131327074Y-59053712D01*
X131327074Y-59608297D01*
X131327074Y-60162882D01*
X132436244Y-60162882D01*
X133545415Y-60162882D01*
X133545415Y-59608297D01*
X133545415Y-59053712D01*
X134100000Y-59053712D01*
X134654585Y-59053712D01*
X134654585Y-60717467D01*
X134654585Y-62381223D01*
X135209170Y-62381223D01*
X135763755Y-62381223D01*
X135763755Y-61826638D01*
X135763755Y-61272053D01*
X136318340Y-61272053D01*
X136872926Y-61272053D01*
X136872926Y-61826638D01*
X136872926Y-62381223D01*
X136318340Y-62381223D01*
X135763755Y-62381223D01*
X135763755Y-62935808D01*
X135763755Y-63490393D01*
X136318340Y-63490393D01*
X136872926Y-63490393D01*
X136872926Y-64044978D01*
X136872926Y-64599563D01*
X135209170Y-64599563D01*
X133545415Y-64599563D01*
X133545415Y-62935808D01*
X133545415Y-61272053D01*
X132990830Y-61272053D01*
X132436244Y-61272053D01*
X132436244Y-62381223D01*
X132436244Y-63490393D01*
X131881659Y-63490393D01*
X131327074Y-63490393D01*
X131327074Y-62381223D01*
X131327074Y-61272053D01*
X130772489Y-61272053D01*
X130217904Y-61272053D01*
X130217904Y-61826638D01*
X130217904Y-62381223D01*
X129663319Y-62381223D01*
X129108733Y-62381223D01*
X129108733Y-63490393D01*
X129108733Y-64599563D01*
X130772489Y-64599563D01*
X132436244Y-64599563D01*
X132436244Y-65154149D01*
X132436244Y-65708734D01*
X132990830Y-65708734D01*
X133545415Y-65708734D01*
X133545415Y-66263319D01*
X133545415Y-66817904D01*
X134100000Y-66817904D01*
X134654585Y-66817904D01*
X134654585Y-66263319D01*
X134654585Y-65708734D01*
X136318340Y-65708734D01*
X137982096Y-65708734D01*
X137982096Y-65154149D01*
X137982096Y-64599563D01*
X138536681Y-64599563D01*
X139091266Y-64599563D01*
X139091266Y-64044978D01*
X139091266Y-63490393D01*
X140200437Y-63490393D01*
X141309607Y-63490393D01*
X141309607Y-64599563D01*
X141309607Y-65708734D01*
X140200437Y-65708734D01*
X139091266Y-65708734D01*
X139091266Y-67372489D01*
X139091266Y-69036245D01*
X140200437Y-69036245D01*
X141309607Y-69036245D01*
X141309607Y-68481660D01*
X141309607Y-67927074D01*
X140755022Y-67927074D01*
X140200437Y-67927074D01*
X140200437Y-67372489D01*
X140200437Y-66817904D01*
X141309607Y-66817904D01*
X142418777Y-66817904D01*
X142418777Y-67372489D01*
X142418777Y-67927074D01*
X142973362Y-67927074D01*
X143527947Y-67927074D01*
X143527947Y-67372489D01*
X143527947Y-66817904D01*
X142973362Y-66817904D01*
X142418777Y-66817904D01*
X142418777Y-66263319D01*
X142418777Y-65708734D01*
X142973362Y-65708734D01*
X143527947Y-65708734D01*
X143527947Y-66263319D01*
X143527947Y-66817904D01*
X144082533Y-66817904D01*
X144637118Y-66817904D01*
X144637118Y-66263319D01*
X144637118Y-65708734D01*
X145191703Y-65708734D01*
X145746288Y-65708734D01*
X145746288Y-65154149D01*
X145746288Y-64599563D01*
X145191703Y-64599563D01*
X144637118Y-64599563D01*
X144637118Y-64044978D01*
X144637118Y-63490393D01*
X145191703Y-63490393D01*
X145746288Y-63490393D01*
X145746288Y-64044978D01*
X145746288Y-64599563D01*
X146855458Y-64599563D01*
X147964629Y-64599563D01*
X147964629Y-64044978D01*
X147964629Y-63490393D01*
X148519214Y-63490393D01*
X149073799Y-63490393D01*
X149073799Y-64044978D01*
X149073799Y-64599563D01*
X148519214Y-64599563D01*
X147964629Y-64599563D01*
X147964629Y-65154149D01*
X147964629Y-65708734D01*
X147410044Y-65708734D01*
X146855458Y-65708734D01*
X146855458Y-66263319D01*
X146855458Y-66817904D01*
X148519214Y-66817904D01*
X150182969Y-66817904D01*
X150182969Y-67372489D01*
X150182969Y-67927074D01*
X147410044Y-67927074D01*
X144637118Y-67927074D01*
X144637118Y-68481660D01*
X144637118Y-69036245D01*
X143527947Y-69036245D01*
X142418777Y-69036245D01*
X142418777Y-69590830D01*
X142418777Y-70145415D01*
X144082533Y-70145415D01*
X145746288Y-70145415D01*
X145746288Y-69590830D01*
X145746288Y-69036245D01*
X146855458Y-69036245D01*
X147964629Y-69036245D01*
X147964629Y-69590830D01*
X147964629Y-70145415D01*
X147410044Y-70145415D01*
X146855458Y-70145415D01*
X146855458Y-70700000D01*
X146855458Y-71254585D01*
X144637118Y-71254585D01*
X142418777Y-71254585D01*
X142418777Y-71809170D01*
X142418777Y-72363756D01*
X141309607Y-72363756D01*
X140200437Y-72363756D01*
X140200437Y-71254585D01*
X140200437Y-70145415D01*
X141309607Y-70145415D01*
X141309607Y-70700000D01*
X141309607Y-71254585D01*
X141864192Y-71254585D01*
X142418777Y-71254585D01*
X142418777Y-70700000D01*
X142418777Y-70145415D01*
X141864192Y-70145415D01*
X141309607Y-70145415D01*
X140200437Y-70145415D01*
X139645851Y-70145415D01*
X139091266Y-70145415D01*
X139091266Y-69590830D01*
X139091266Y-69036245D01*
X138536681Y-69036245D01*
X137982096Y-69036245D01*
X137982096Y-68481660D01*
X137982096Y-67927074D01*
X137427511Y-67927074D01*
X136872926Y-67927074D01*
X136872926Y-67372489D01*
X136872926Y-66817904D01*
X135763755Y-66817904D01*
X134654585Y-66817904D01*
X134654585Y-67927074D01*
X134654585Y-68481660D01*
X134654585Y-70145415D01*
X135209170Y-70145415D01*
X135763755Y-70145415D01*
X135763755Y-70700000D01*
X135763755Y-71254585D01*
X136318340Y-71254585D01*
X136872926Y-71254585D01*
X136872926Y-71809170D01*
X136872926Y-72363756D01*
X135209170Y-72363756D01*
X133545415Y-72363756D01*
X133545415Y-71809170D01*
X133545415Y-71254585D01*
X132990830Y-71254585D01*
X132436244Y-71254585D01*
X132436244Y-70145415D01*
X132436244Y-69036245D01*
X131327074Y-69036245D01*
X130217904Y-69036245D01*
X130217904Y-67927074D01*
X130217904Y-66817904D01*
X130772489Y-66817904D01*
X131327074Y-66817904D01*
X131327074Y-67372489D01*
X131327074Y-67927074D01*
X131881659Y-67927074D01*
X132436244Y-67927074D01*
X132436244Y-68481660D01*
X132436244Y-69036245D01*
X132990830Y-69036245D01*
X133545415Y-69036245D01*
X133545415Y-68481660D01*
X133545415Y-67927074D01*
X132990830Y-67927074D01*
X132436244Y-67927074D01*
X132436244Y-67372489D01*
X132436244Y-66817904D01*
X131881659Y-66817904D01*
X131327074Y-66817904D01*
X131327074Y-66263319D01*
X131327074Y-65708734D01*
X130772489Y-65708734D01*
X130217904Y-65708734D01*
X130217904Y-66263319D01*
X130217904Y-66817904D01*
X129663319Y-66817904D01*
X129108733Y-66817904D01*
X129108733Y-67372489D01*
X129108733Y-67927074D01*
X127444978Y-67927074D01*
X125781223Y-67927074D01*
X125781223Y-66817904D01*
X125781223Y-65708734D01*
X126335808Y-65708734D01*
X126890393Y-65708734D01*
X127999563Y-65708734D01*
X127999563Y-66263319D01*
X127999563Y-66817904D01*
X128554148Y-66817904D01*
X129108733Y-66817904D01*
X129108733Y-66263319D01*
X129108733Y-65708734D01*
X128554148Y-65708734D01*
X127999563Y-65708734D01*
X126890393Y-65708734D01*
X126890393Y-65154149D01*
X126890393Y-64599563D01*
X126335808Y-64599563D01*
X125781223Y-64599563D01*
X125781223Y-65154149D01*
X125781223Y-65708734D01*
X125226637Y-65708734D01*
X124672052Y-65708734D01*
X124672052Y-67372489D01*
X124672052Y-69036245D01*
X124117467Y-69036245D01*
X123562882Y-69036245D01*
X123562882Y-67927074D01*
X123562882Y-66817904D01*
X123008297Y-66817904D01*
X122453712Y-66817904D01*
X122453712Y-67372489D01*
X122453712Y-67927074D01*
X121899126Y-67927074D01*
X121344541Y-67927074D01*
X121344541Y-66263319D01*
X121344541Y-64599563D01*
X120789956Y-64599563D01*
X120235371Y-64599563D01*
X120235371Y-64044978D01*
X120235371Y-63490393D01*
X120789956Y-63490393D01*
X121344541Y-63490393D01*
X121344541Y-64044978D01*
X121344541Y-64599563D01*
X121899126Y-64599563D01*
X122453712Y-64599563D01*
X123562882Y-64599563D01*
X123562882Y-65154149D01*
X123562882Y-65708734D01*
X124117467Y-65708734D01*
X124672052Y-65708734D01*
X124672052Y-65154149D01*
X124672052Y-64599563D01*
X124117467Y-64599563D01*
X123562882Y-64599563D01*
X122453712Y-64599563D01*
X122453712Y-64044978D01*
X122453712Y-63490393D01*
X123562882Y-63490393D01*
X124672052Y-63490393D01*
X124672052Y-64044978D01*
X124672052Y-64599563D01*
X125226637Y-64599563D01*
X125781223Y-64599563D01*
X125781223Y-64044978D01*
X125781223Y-63490393D01*
X126335808Y-63490393D01*
X126890393Y-63490393D01*
X126890393Y-62381223D01*
X126890393Y-61272053D01*
X127444978Y-61272053D01*
X127999563Y-61272053D01*
X127999563Y-61826638D01*
X127999563Y-62381223D01*
X128554148Y-62381223D01*
X129108733Y-62381223D01*
X129108733Y-61826638D01*
X129108733Y-61272053D01*
X128554148Y-61272053D01*
X127999563Y-61272053D01*
X127999563Y-60717467D01*
X127999563Y-60162882D01*
X128554148Y-60162882D01*
X129108733Y-60162882D01*
X129108733Y-60717467D01*
X129108733Y-61272053D01*
X129663319Y-61272053D01*
X130217904Y-61272053D01*
X130217904Y-60717467D01*
X130217904Y-60162882D01*
X129663319Y-60162882D01*
X129108733Y-60162882D01*
X129108733Y-58499127D01*
X129108733Y-56835371D01*
X127999563Y-56835371D01*
X126890393Y-56835371D01*
X126890393Y-55726201D01*
X129108733Y-55726201D01*
X129108733Y-56280786D01*
X129108733Y-56835371D01*
X129663319Y-56835371D01*
X130217904Y-56835371D01*
X130217904Y-56280786D01*
X130217904Y-55726201D01*
X129663319Y-55726201D01*
X129108733Y-55726201D01*
X126890393Y-55726201D01*
X126890393Y-54617031D01*
X129663319Y-54617031D01*
X132436244Y-54617031D01*
X132436244Y-55726201D01*
X132436244Y-56280786D01*
X132436244Y-56835371D01*
G37*
G36*
X125226637Y-69036245D02*
G01*
X125781223Y-69036245D01*
X125781223Y-69590830D01*
X125781223Y-70145415D01*
X125226637Y-70145415D01*
X124672052Y-70145415D01*
X124672052Y-69590830D01*
X124672052Y-69036245D01*
X125226637Y-69036245D01*
G37*
G36*
X132990830Y-56835371D02*
G01*
X133545415Y-56835371D01*
X133545415Y-57944542D01*
X133545415Y-59053712D01*
X132990830Y-59053712D01*
X132436244Y-59053712D01*
X132436244Y-57944542D01*
X132436244Y-56835371D01*
X132990830Y-56835371D01*
G37*
%LPD*%
M02*
