G04 #@! TF.GenerationSoftware,KiCad,Pcbnew,8.0.6*
G04 #@! TF.CreationDate,2025-10-23T00:14:21-07:00*
G04 #@! TF.ProjectId,PCB_Business_Card,5043425f-4275-4736-996e-6573735f4361,rev?*
G04 #@! TF.SameCoordinates,Original*
G04 #@! TF.FileFunction,Paste,Top*
G04 #@! TF.FilePolarity,Positive*
%FSLAX46Y46*%
G04 Gerber Fmt 4.6, Leading zero omitted, Abs format (unit mm)*
G04 Created by KiCad (PCBNEW 8.0.6) date 2025-10-23 00:14:21*
%MOMM*%
%LPD*%
G01*
G04 APERTURE LIST*
G04 Aperture macros list*
%AMRoundRect*
0 Rectangle with rounded corners*
0 $1 Rounding radius*
0 $2 $3 $4 $5 $6 $7 $8 $9 X,Y pos of 4 corners*
0 Add a 4 corners polygon primitive as box body*
4,1,4,$2,$3,$4,$5,$6,$7,$8,$9,$2,$3,0*
0 Add four circle primitives for the rounded corners*
1,1,$1+$1,$2,$3*
1,1,$1+$1,$4,$5*
1,1,$1+$1,$6,$7*
1,1,$1+$1,$8,$9*
0 Add four rect primitives between the rounded corners*
20,1,$1+$1,$2,$3,$4,$5,0*
20,1,$1+$1,$4,$5,$6,$7,0*
20,1,$1+$1,$6,$7,$8,$9,0*
20,1,$1+$1,$8,$9,$2,$3,0*%
G04 Aperture macros list end*
%ADD10C,0.010000*%
%ADD11RoundRect,0.147500X-0.147500X-0.172500X0.147500X-0.172500X0.147500X0.172500X-0.147500X0.172500X0*%
%ADD12RoundRect,0.135000X-0.185000X0.135000X-0.185000X-0.135000X0.185000X-0.135000X0.185000X0.135000X0*%
%ADD13RoundRect,0.140000X-0.170000X0.140000X-0.170000X-0.140000X0.170000X-0.140000X0.170000X0.140000X0*%
%ADD14R,0.220000X0.400000*%
%ADD15R,0.400000X0.220000*%
%ADD16RoundRect,0.135000X0.185000X-0.135000X0.185000X0.135000X-0.185000X0.135000X-0.185000X-0.135000X0*%
G04 APERTURE END LIST*
D10*
X174835000Y-93400000D02*
X174590000Y-93400000D01*
X174590000Y-93000000D01*
X174835000Y-93000000D01*
X174835000Y-93400000D01*
G36*
X174835000Y-93400000D02*
G01*
X174590000Y-93400000D01*
X174590000Y-93000000D01*
X174835000Y-93000000D01*
X174835000Y-93400000D01*
G37*
X168000000Y-94800000D02*
X167400000Y-94800000D01*
X167400000Y-94300000D01*
X168000000Y-94300000D01*
X168000000Y-94800000D01*
G36*
X168000000Y-94800000D02*
G01*
X167400000Y-94800000D01*
X167400000Y-94300000D01*
X168000000Y-94300000D01*
X168000000Y-94800000D01*
G37*
X170000000Y-93850000D02*
X169400000Y-93850000D01*
X169400000Y-93350000D01*
X170000000Y-93350000D01*
X170000000Y-93850000D01*
G36*
X170000000Y-93850000D02*
G01*
X169400000Y-93850000D01*
X169400000Y-93350000D01*
X170000000Y-93350000D01*
X170000000Y-93850000D01*
G37*
X170000000Y-95750000D02*
X169400000Y-95750000D01*
X169400000Y-95250000D01*
X170000000Y-95250000D01*
X170000000Y-95750000D01*
G36*
X170000000Y-95750000D02*
G01*
X169400000Y-95750000D01*
X169400000Y-95250000D01*
X170000000Y-95250000D01*
X170000000Y-95750000D01*
G37*
D11*
X109815000Y-45500000D03*
X110785000Y-45500000D03*
D12*
X166100000Y-93290000D03*
X166100000Y-94310000D03*
D13*
X174800000Y-95520000D03*
X174800000Y-96480000D03*
D12*
X173600000Y-95490000D03*
X173600000Y-96510000D03*
X172300000Y-93390000D03*
X172300000Y-94410000D03*
X172300000Y-95490000D03*
X172300000Y-96510000D03*
X166100000Y-95290000D03*
X166100000Y-96310000D03*
D11*
X109800000Y-48000000D03*
X110770000Y-48000000D03*
D14*
X174200000Y-93200000D03*
X173700000Y-93200000D03*
D15*
X173600000Y-93800000D03*
D14*
X173700000Y-94400000D03*
X174200000Y-94400000D03*
X174700000Y-94400000D03*
D15*
X174800000Y-93800000D03*
D16*
X171000000Y-94410000D03*
X171000000Y-93390000D03*
M02*
