G04 #@! TF.GenerationSoftware,KiCad,Pcbnew,8.0.6*
G04 #@! TF.CreationDate,2025-10-23T00:14:21-07:00*
G04 #@! TF.ProjectId,PCB_Business_Card,5043425f-4275-4736-996e-6573735f4361,rev?*
G04 #@! TF.SameCoordinates,Original*
G04 #@! TF.FileFunction,Soldermask,Top*
G04 #@! TF.FilePolarity,Negative*
%FSLAX46Y46*%
G04 Gerber Fmt 4.6, Leading zero omitted, Abs format (unit mm)*
G04 Created by KiCad (PCBNEW 8.0.6) date 2025-10-23 00:14:21*
%MOMM*%
%LPD*%
G01*
G04 APERTURE LIST*
G04 Aperture macros list*
%AMRoundRect*
0 Rectangle with rounded corners*
0 $1 Rounding radius*
0 $2 $3 $4 $5 $6 $7 $8 $9 X,Y pos of 4 corners*
0 Add a 4 corners polygon primitive as box body*
4,1,4,$2,$3,$4,$5,$6,$7,$8,$9,$2,$3,0*
0 Add four circle primitives for the rounded corners*
1,1,$1+$1,$2,$3*
1,1,$1+$1,$4,$5*
1,1,$1+$1,$6,$7*
1,1,$1+$1,$8,$9*
0 Add four rect primitives between the rounded corners*
20,1,$1+$1,$2,$3,$4,$5,0*
20,1,$1+$1,$4,$5,$6,$7,0*
20,1,$1+$1,$6,$7,$8,$9,0*
20,1,$1+$1,$8,$9,$2,$3,0*%
G04 Aperture macros list end*
%ADD10C,0.500000*%
%ADD11C,0.325000*%
%ADD12C,0.010000*%
%ADD13RoundRect,0.147500X-0.147500X-0.172500X0.147500X-0.172500X0.147500X0.172500X-0.147500X0.172500X0*%
%ADD14RoundRect,0.135000X-0.185000X0.135000X-0.185000X-0.135000X0.185000X-0.135000X0.185000X0.135000X0*%
%ADD15RoundRect,0.140000X-0.170000X0.140000X-0.170000X-0.140000X0.170000X-0.140000X0.170000X0.140000X0*%
%ADD16RoundRect,0.135000X0.185000X-0.135000X0.185000X0.135000X-0.185000X0.135000X-0.185000X-0.135000X0*%
G04 APERTURE END LIST*
D10*
G36*
X112439510Y-64065774D02*
G01*
X112685915Y-64097594D01*
X112935906Y-64157829D01*
X113028890Y-64189256D01*
X113264656Y-64295989D01*
X113471561Y-64431812D01*
X113634612Y-64580533D01*
X113786275Y-64771636D01*
X113898856Y-64970160D01*
X113987346Y-65192297D01*
X113994870Y-65215809D01*
X114052723Y-65437264D01*
X114091642Y-65676282D01*
X114110342Y-65903485D01*
X114114549Y-66082993D01*
X114106535Y-66321977D01*
X114082493Y-66548734D01*
X114036286Y-66789219D01*
X113986322Y-66965565D01*
X113904931Y-67177061D01*
X113791158Y-67390439D01*
X113652817Y-67581063D01*
X113606524Y-67633813D01*
X113436651Y-67793783D01*
X113241496Y-67928851D01*
X113021057Y-68039018D01*
X112973935Y-68058063D01*
X112723276Y-68135729D01*
X112476270Y-68181035D01*
X112208978Y-68203040D01*
X112083670Y-68205341D01*
X111812654Y-68194648D01*
X111562889Y-68162567D01*
X111310298Y-68101838D01*
X111216608Y-68070153D01*
X110980435Y-67962039D01*
X110773989Y-67825094D01*
X110612107Y-67675579D01*
X110462674Y-67483201D01*
X110351620Y-67282617D01*
X110264179Y-67057560D01*
X110256734Y-67033709D01*
X110200062Y-66808901D01*
X110161937Y-66566010D01*
X110143619Y-66334926D01*
X110139497Y-66152236D01*
X110140658Y-66118164D01*
X110764759Y-66118164D01*
X110772407Y-66356364D01*
X110795351Y-66581316D01*
X110829483Y-66774323D01*
X110891307Y-66987100D01*
X110986190Y-67191795D01*
X111049302Y-67290896D01*
X111204878Y-67462050D01*
X111400191Y-67596599D01*
X111463293Y-67628318D01*
X111696407Y-67705884D01*
X111950229Y-67742386D01*
X112115422Y-67748119D01*
X112367140Y-67732664D01*
X112608826Y-67680551D01*
X112767550Y-67617327D01*
X112979560Y-67484461D01*
X113151832Y-67316673D01*
X113193754Y-67262320D01*
X113317039Y-67053630D01*
X113399705Y-66835734D01*
X113423342Y-66745746D01*
X113465016Y-66520707D01*
X113487456Y-66285776D01*
X113491730Y-66123660D01*
X113483793Y-65893619D01*
X113457032Y-65655699D01*
X113424563Y-65486186D01*
X113356068Y-65259026D01*
X113248945Y-65043603D01*
X113202302Y-64974009D01*
X113045424Y-64801893D01*
X112848341Y-64666383D01*
X112784647Y-64634389D01*
X112551952Y-64555399D01*
X112301021Y-64518227D01*
X112138625Y-64512390D01*
X111888730Y-64527974D01*
X111649363Y-64580525D01*
X111492602Y-64644281D01*
X111283465Y-64775554D01*
X111111259Y-64940486D01*
X111068841Y-64993792D01*
X110944253Y-65199267D01*
X110859960Y-65415306D01*
X110835589Y-65504870D01*
X110792427Y-65727643D01*
X110769186Y-65959071D01*
X110764759Y-66118164D01*
X110140658Y-66118164D01*
X110147435Y-65919228D01*
X110171249Y-65697212D01*
X110217016Y-65460580D01*
X110266503Y-65286151D01*
X110348581Y-65075978D01*
X110463118Y-64864274D01*
X110602222Y-64675539D01*
X110648743Y-64623398D01*
X110819904Y-64465275D01*
X111015871Y-64331623D01*
X111236644Y-64222444D01*
X111283775Y-64203545D01*
X111534315Y-64125299D01*
X111781009Y-64079655D01*
X112047797Y-64057485D01*
X112172819Y-64055167D01*
X112439510Y-64065774D01*
G37*
G36*
X119203349Y-67999811D02*
G01*
X119161828Y-68069054D01*
X119086113Y-68109720D01*
X118967655Y-68129504D01*
X118795464Y-68135000D01*
X118614724Y-68129504D01*
X118492602Y-68109720D01*
X118420551Y-68069054D01*
X118382693Y-67999811D01*
X117452128Y-65000387D01*
X117444801Y-65000387D01*
X116586287Y-67999811D01*
X116552093Y-68069054D01*
X116483705Y-68109720D01*
X116367690Y-68129504D01*
X116188171Y-68135000D01*
X115998883Y-68129504D01*
X115875540Y-68109720D01*
X115802267Y-68069054D01*
X115765631Y-67999811D01*
X114590823Y-64331039D01*
X114568841Y-64221130D01*
X114595708Y-64159581D01*
X114689741Y-64132103D01*
X114865596Y-64125509D01*
X115034124Y-64129905D01*
X115128157Y-64147491D01*
X115173342Y-64181563D01*
X115191660Y-64236517D01*
X116191835Y-67563471D01*
X116195498Y-67563471D01*
X117143161Y-64242013D01*
X117168806Y-64185959D01*
X117218876Y-64150788D01*
X117316573Y-64132103D01*
X117482658Y-64125509D01*
X117635310Y-64132103D01*
X117726901Y-64150788D01*
X117776971Y-64185959D01*
X117802616Y-64242013D01*
X118822330Y-67563471D01*
X118829658Y-67563471D01*
X119807850Y-64238715D01*
X119828611Y-64185959D01*
X119871353Y-64150788D01*
X119964166Y-64132103D01*
X120124145Y-64125509D01*
X120287787Y-64133203D01*
X120374494Y-64162878D01*
X120400139Y-64224427D01*
X120381821Y-64334337D01*
X119203349Y-67999811D01*
G37*
G36*
X123644905Y-67916280D02*
G01*
X123637578Y-68014099D01*
X123613154Y-68083342D01*
X123574075Y-68122909D01*
X123524005Y-68135000D01*
X121391765Y-68135000D01*
X121241556Y-68087739D01*
X121171946Y-67918478D01*
X121171946Y-64342030D01*
X121241556Y-64173869D01*
X121391765Y-64125509D01*
X123500802Y-64125509D01*
X123549651Y-64137599D01*
X123586287Y-64178265D01*
X123608269Y-64247508D01*
X123616817Y-64349724D01*
X123608269Y-64447543D01*
X123586287Y-64514588D01*
X123549651Y-64553056D01*
X123500802Y-64565146D01*
X121763014Y-64565146D01*
X121763014Y-65796130D01*
X123252896Y-65796130D01*
X123302965Y-65810418D01*
X123340823Y-65849986D01*
X123362805Y-65920327D01*
X123370132Y-66023642D01*
X123362805Y-66122561D01*
X123340823Y-66188506D01*
X123302965Y-66224776D01*
X123252896Y-66235767D01*
X121763014Y-66235767D01*
X121763014Y-67695362D01*
X123524005Y-67695362D01*
X123574075Y-67707452D01*
X123613154Y-67745921D01*
X123637578Y-67814064D01*
X123644905Y-67916280D01*
G37*
G36*
X127944801Y-67906388D02*
G01*
X127922819Y-68011901D01*
X127864200Y-68083342D01*
X127783600Y-68122909D01*
X127694452Y-68135000D01*
X127505163Y-68135000D01*
X127348848Y-68117414D01*
X127221842Y-68053667D01*
X127102163Y-67928370D01*
X126974763Y-67735784D01*
X126970272Y-67728335D01*
X125568318Y-65457609D01*
X125443897Y-65254556D01*
X125346057Y-65089413D01*
X125232461Y-64887842D01*
X125139672Y-64714623D01*
X125132344Y-64714623D01*
X125138450Y-64939112D01*
X125142114Y-65168548D01*
X125144862Y-65398808D01*
X125145778Y-65627969D01*
X125145778Y-68036081D01*
X125132344Y-68077847D01*
X125085938Y-68108621D01*
X124999232Y-68127306D01*
X124864898Y-68135000D01*
X124728122Y-68127306D01*
X124643859Y-68108621D01*
X124599895Y-68077847D01*
X124586461Y-68036081D01*
X124586461Y-64354120D01*
X124662177Y-64178265D01*
X124827041Y-64125509D01*
X125107920Y-64125509D01*
X125275226Y-64140896D01*
X125394905Y-64192554D01*
X125497487Y-64291472D01*
X125606175Y-64449741D01*
X126684508Y-66201695D01*
X126806820Y-66399274D01*
X126877459Y-66514937D01*
X126996120Y-66713559D01*
X127055757Y-66816088D01*
X127172721Y-67017037D01*
X127225505Y-67107348D01*
X127340791Y-67304850D01*
X127392812Y-67395310D01*
X127395254Y-67395310D01*
X127390335Y-67163245D01*
X127387196Y-66938807D01*
X127386706Y-66889727D01*
X127385871Y-66662915D01*
X127385495Y-66428773D01*
X127385484Y-66383046D01*
X127385484Y-64224427D01*
X127398918Y-64183761D01*
X127445324Y-64151887D01*
X127530809Y-64132103D01*
X127670027Y-64125509D01*
X127800697Y-64132103D01*
X127886182Y-64151887D01*
X127931367Y-64183761D01*
X127944801Y-64224427D01*
X127944801Y-67906388D01*
G37*
G36*
X134942358Y-67999811D02*
G01*
X134900837Y-68069054D01*
X134825122Y-68109720D01*
X134706664Y-68129504D01*
X134534473Y-68135000D01*
X134353733Y-68129504D01*
X134231612Y-68109720D01*
X134159560Y-68069054D01*
X134121702Y-67999811D01*
X133191137Y-65000387D01*
X133183810Y-65000387D01*
X132325296Y-67999811D01*
X132291102Y-68069054D01*
X132222714Y-68109720D01*
X132106699Y-68129504D01*
X131927180Y-68135000D01*
X131737892Y-68129504D01*
X131614549Y-68109720D01*
X131541277Y-68069054D01*
X131504640Y-67999811D01*
X130329832Y-64331039D01*
X130307850Y-64221130D01*
X130334717Y-64159581D01*
X130428750Y-64132103D01*
X130604605Y-64125509D01*
X130773133Y-64129905D01*
X130867166Y-64147491D01*
X130912351Y-64181563D01*
X130930669Y-64236517D01*
X131930844Y-67563471D01*
X131934508Y-67563471D01*
X132882170Y-64242013D01*
X132907815Y-64185959D01*
X132957885Y-64150788D01*
X133055582Y-64132103D01*
X133221667Y-64125509D01*
X133374319Y-64132103D01*
X133465910Y-64150788D01*
X133515980Y-64185959D01*
X133541625Y-64242013D01*
X134561339Y-67563471D01*
X134568667Y-67563471D01*
X135546859Y-64238715D01*
X135567620Y-64185959D01*
X135610362Y-64150788D01*
X135703175Y-64132103D01*
X135863154Y-64125509D01*
X136026796Y-64133203D01*
X136113503Y-64162878D01*
X136139148Y-64224427D01*
X136120830Y-64334337D01*
X134942358Y-67999811D01*
G37*
G36*
X137502023Y-68037180D02*
G01*
X137487369Y-68080045D01*
X137439741Y-68108621D01*
X137348150Y-68127306D01*
X137206489Y-68135000D01*
X137064829Y-68127306D01*
X136972016Y-68108621D01*
X136924389Y-68080045D01*
X136910956Y-68037180D01*
X136910956Y-64223328D01*
X136925610Y-64181563D01*
X136976901Y-64151887D01*
X137069713Y-64133203D01*
X137206489Y-64125509D01*
X137348150Y-64133203D01*
X137439741Y-64151887D01*
X137487369Y-64181563D01*
X137502023Y-64223328D01*
X137502023Y-68037180D01*
G37*
G36*
X140978820Y-67905289D02*
G01*
X140971493Y-68007505D01*
X140949511Y-68078946D01*
X140911653Y-68121810D01*
X140859141Y-68135000D01*
X138894207Y-68135000D01*
X138743998Y-68087739D01*
X138674389Y-67919577D01*
X138674389Y-64224427D01*
X138687822Y-64181563D01*
X138735450Y-64151887D01*
X138828262Y-64133203D01*
X138969923Y-64125509D01*
X139111584Y-64133203D01*
X139203175Y-64151887D01*
X139250802Y-64181563D01*
X139265457Y-64224427D01*
X139265457Y-67677777D01*
X140859141Y-67677777D01*
X140911653Y-67692065D01*
X140949511Y-67731632D01*
X140971493Y-67800875D01*
X140978820Y-67905289D01*
G37*
G36*
X144815875Y-68037180D02*
G01*
X144802442Y-68080045D01*
X144753593Y-68108621D01*
X144662002Y-68127306D01*
X144524005Y-68135000D01*
X144379902Y-68127306D01*
X144290753Y-68109720D01*
X144241905Y-68081144D01*
X144228471Y-68038279D01*
X144228471Y-66306109D01*
X142206140Y-66306109D01*
X142206140Y-68038279D01*
X142191486Y-68081144D01*
X142143859Y-68109720D01*
X142052267Y-68127306D01*
X141910607Y-68135000D01*
X141768946Y-68127306D01*
X141676133Y-68108621D01*
X141628506Y-68080045D01*
X141615073Y-68037180D01*
X141615073Y-64223328D01*
X141628506Y-64181563D01*
X141676133Y-64151887D01*
X141768946Y-64133203D01*
X141910607Y-64125509D01*
X142052267Y-64133203D01*
X142143859Y-64151887D01*
X142191486Y-64181563D01*
X142206140Y-64225526D01*
X142206140Y-65848886D01*
X144228471Y-65848886D01*
X144228471Y-64225526D01*
X144241905Y-64181563D01*
X144290753Y-64151887D01*
X144379902Y-64133203D01*
X144524005Y-64125509D01*
X144662002Y-64133203D01*
X144753593Y-64151887D01*
X144802442Y-64181563D01*
X144815875Y-64223328D01*
X144815875Y-68037180D01*
G37*
G36*
X148445324Y-67916280D02*
G01*
X148437997Y-68014099D01*
X148413572Y-68083342D01*
X148374494Y-68122909D01*
X148324424Y-68135000D01*
X146192184Y-68135000D01*
X146041974Y-68087739D01*
X145972365Y-67918478D01*
X145972365Y-64342030D01*
X146041974Y-64173869D01*
X146192184Y-64125509D01*
X148301221Y-64125509D01*
X148350069Y-64137599D01*
X148386706Y-64178265D01*
X148408688Y-64247508D01*
X148417236Y-64349724D01*
X148408688Y-64447543D01*
X148386706Y-64514588D01*
X148350069Y-64553056D01*
X148301221Y-64565146D01*
X146563433Y-64565146D01*
X146563433Y-65796130D01*
X148053314Y-65796130D01*
X148103384Y-65810418D01*
X148141242Y-65849986D01*
X148163224Y-65920327D01*
X148170551Y-66023642D01*
X148163224Y-66122561D01*
X148141242Y-66188506D01*
X148103384Y-66224776D01*
X148053314Y-66235767D01*
X146563433Y-66235767D01*
X146563433Y-67695362D01*
X148324424Y-67695362D01*
X148374494Y-67707452D01*
X148413572Y-67745921D01*
X148437997Y-67814064D01*
X148445324Y-67916280D01*
G37*
G36*
X150801676Y-64131399D02*
G01*
X150830355Y-64133203D01*
X151031856Y-64149689D01*
X151274267Y-64200797D01*
X151486147Y-64274986D01*
X151698691Y-64393063D01*
X151818318Y-64492606D01*
X151959521Y-64672067D01*
X152018597Y-64793757D01*
X152076318Y-65019501D01*
X152085764Y-65168548D01*
X152064668Y-65390060D01*
X152025924Y-65524654D01*
X151918247Y-65723620D01*
X151852512Y-65802725D01*
X151666539Y-65960053D01*
X151581402Y-66012651D01*
X151357805Y-66116696D01*
X151227250Y-66162128D01*
X151426308Y-66273136D01*
X151593614Y-66432505D01*
X151726041Y-66625303D01*
X151738939Y-66647927D01*
X151842666Y-66847206D01*
X151876936Y-66921601D01*
X152275052Y-67808569D01*
X152336113Y-67965739D01*
X152350767Y-68034982D01*
X152339776Y-68078946D01*
X152295812Y-68110819D01*
X152199337Y-68129504D01*
X152034473Y-68135000D01*
X151887927Y-68129504D01*
X151797557Y-68108621D01*
X151743824Y-68070153D01*
X151712072Y-68007505D01*
X151302965Y-67060087D01*
X151201585Y-66850400D01*
X151153977Y-66763332D01*
X151015130Y-66574908D01*
X150969574Y-66530324D01*
X150771933Y-66400391D01*
X150719225Y-66378649D01*
X150470097Y-66327129D01*
X150372400Y-66323695D01*
X149977948Y-66323695D01*
X149977948Y-68036081D01*
X149962072Y-68078946D01*
X149913224Y-68108621D01*
X149824075Y-68127306D01*
X149682414Y-68135000D01*
X149539532Y-68127306D01*
X149447941Y-68108621D01*
X149400314Y-68080045D01*
X149386880Y-68036081D01*
X149386880Y-65884057D01*
X149977948Y-65884057D01*
X150554361Y-65884057D01*
X150808960Y-65866621D01*
X150957362Y-65834598D01*
X151180844Y-65737122D01*
X151240683Y-65695013D01*
X151393621Y-65514814D01*
X151407990Y-65485087D01*
X151460411Y-65265418D01*
X151461723Y-65221304D01*
X151428636Y-64997400D01*
X151344487Y-64833325D01*
X151162750Y-64682551D01*
X150952477Y-64604713D01*
X150758304Y-64575038D01*
X150507354Y-64565233D01*
X150474982Y-64565146D01*
X149977948Y-64565146D01*
X149977948Y-65884057D01*
X149386880Y-65884057D01*
X149386880Y-64340931D01*
X149456489Y-64173869D01*
X149606699Y-64125509D01*
X150550697Y-64125509D01*
X150801676Y-64131399D01*
G37*
G36*
X155660258Y-67916280D02*
G01*
X155652930Y-68014099D01*
X155628506Y-68083342D01*
X155589427Y-68122909D01*
X155539357Y-68135000D01*
X153407117Y-68135000D01*
X153256908Y-68087739D01*
X153187299Y-67918478D01*
X153187299Y-64342030D01*
X153256908Y-64173869D01*
X153407117Y-64125509D01*
X155516154Y-64125509D01*
X155565003Y-64137599D01*
X155601639Y-64178265D01*
X155623621Y-64247508D01*
X155632170Y-64349724D01*
X155623621Y-64447543D01*
X155601639Y-64514588D01*
X155565003Y-64553056D01*
X155516154Y-64565146D01*
X153778367Y-64565146D01*
X153778367Y-65796130D01*
X155268248Y-65796130D01*
X155318318Y-65810418D01*
X155356175Y-65849986D01*
X155378157Y-65920327D01*
X155385484Y-66023642D01*
X155378157Y-66122561D01*
X155356175Y-66188506D01*
X155318318Y-66224776D01*
X155268248Y-66235767D01*
X153778367Y-66235767D01*
X153778367Y-67695362D01*
X155539357Y-67695362D01*
X155589427Y-67707452D01*
X155628506Y-67745921D01*
X155652930Y-67814064D01*
X155660258Y-67916280D01*
G37*
G36*
X111816137Y-73297962D02*
G01*
X111812473Y-73324829D01*
X111801482Y-73344368D01*
X111783164Y-73356092D01*
X111761182Y-73360000D01*
X110720708Y-73360000D01*
X110657205Y-73341437D01*
X110624842Y-73273049D01*
X110624842Y-71664954D01*
X110657205Y-71596566D01*
X110720708Y-71578004D01*
X111745917Y-71578004D01*
X111767899Y-71581912D01*
X111784996Y-71594124D01*
X111795376Y-71614152D01*
X111799040Y-71642484D01*
X111795376Y-71668862D01*
X111784996Y-71687913D01*
X111767899Y-71699148D01*
X111745917Y-71703056D01*
X110834281Y-71703056D01*
X110834281Y-72359581D01*
X111620743Y-72359581D01*
X111644556Y-72363977D01*
X111661653Y-72375701D01*
X111672034Y-72396217D01*
X111675697Y-72425038D01*
X111672034Y-72451905D01*
X111661653Y-72470467D01*
X111644556Y-72481214D01*
X111620743Y-72484633D01*
X110834281Y-72484633D01*
X110834281Y-73234947D01*
X111761182Y-73234947D01*
X111783164Y-73238855D01*
X111801482Y-73250579D01*
X111812473Y-73270118D01*
X111816137Y-73297962D01*
G37*
G36*
X112500628Y-73324340D02*
G01*
X112495132Y-73339483D01*
X112479256Y-73350718D01*
X112448115Y-73357557D01*
X112398046Y-73360000D01*
X112348586Y-73357557D01*
X112316835Y-73350718D01*
X112300959Y-73339483D01*
X112296685Y-73324340D01*
X112296685Y-71488122D01*
X112300959Y-71473468D01*
X112316835Y-71461744D01*
X112348586Y-71454905D01*
X112398046Y-71452951D01*
X112448115Y-71454905D01*
X112479256Y-71461744D01*
X112495132Y-71473468D01*
X112500628Y-71488122D01*
X112500628Y-73324340D01*
G37*
G36*
X113803844Y-72022488D02*
G01*
X113930219Y-72047612D01*
X113978297Y-72064047D01*
X114084709Y-72116683D01*
X114176624Y-72188918D01*
X114181629Y-72193984D01*
X114250780Y-72282278D01*
X114295923Y-72377254D01*
X114298255Y-72384005D01*
X114323717Y-72480616D01*
X114334920Y-72581529D01*
X114335502Y-72611151D01*
X114335502Y-72645345D01*
X114302529Y-72715687D01*
X114239637Y-72734738D01*
X113180233Y-72734738D01*
X113185609Y-72836345D01*
X113203302Y-72935456D01*
X113208321Y-72954068D01*
X113248981Y-73050013D01*
X113301744Y-73121618D01*
X113393321Y-73193204D01*
X113472103Y-73229085D01*
X113597134Y-73258053D01*
X113720285Y-73266174D01*
X113729780Y-73266210D01*
X113856051Y-73260677D01*
X113923342Y-73252044D01*
X114043332Y-73227059D01*
X114071720Y-73219316D01*
X114174912Y-73187076D01*
X114232920Y-73172421D01*
X114251849Y-73176329D01*
X114265282Y-73187564D01*
X114273220Y-73207103D01*
X114275662Y-73236901D01*
X114273831Y-73253021D01*
X114269556Y-73267187D01*
X114261618Y-73279888D01*
X114248185Y-73291612D01*
X114195062Y-73314570D01*
X114078436Y-73347787D01*
X113956964Y-73370777D01*
X113910519Y-73377585D01*
X113785727Y-73389339D01*
X113705355Y-73391263D01*
X113576012Y-73385080D01*
X113448874Y-73364429D01*
X113386008Y-73347299D01*
X113273141Y-73300362D01*
X113177104Y-73237344D01*
X113152756Y-73216385D01*
X113078708Y-73132783D01*
X113025647Y-73040921D01*
X113009263Y-73001939D01*
X112979496Y-72900251D01*
X112964279Y-72797018D01*
X112960415Y-72705429D01*
X112965778Y-72609685D01*
X113180233Y-72609685D01*
X114124232Y-72609685D01*
X114119233Y-72505333D01*
X114095088Y-72402387D01*
X114045261Y-72305949D01*
X114011270Y-72264815D01*
X113916987Y-72194174D01*
X113797018Y-72152856D01*
X113665666Y-72140739D01*
X113543349Y-72153104D01*
X113460502Y-72179818D01*
X113361087Y-72238589D01*
X113311514Y-72283377D01*
X113246160Y-72371991D01*
X113217480Y-72432854D01*
X113189767Y-72530639D01*
X113180233Y-72609685D01*
X112965778Y-72609685D01*
X112966403Y-72598529D01*
X112984369Y-72499479D01*
X113011095Y-72416245D01*
X113059428Y-72318708D01*
X113122071Y-72234071D01*
X113155809Y-72199357D01*
X113245986Y-72129273D01*
X113350888Y-72075458D01*
X113383565Y-72063070D01*
X113505766Y-72030679D01*
X113629493Y-72016844D01*
X113679710Y-72015687D01*
X113803844Y-72022488D01*
G37*
G36*
X115882780Y-73148485D02*
G01*
X115880949Y-73174863D01*
X115875453Y-73195380D01*
X115866294Y-73211988D01*
X115837595Y-73239832D01*
X115763101Y-73288681D01*
X115653979Y-73338111D01*
X115645865Y-73340949D01*
X115528222Y-73372479D01*
X115504815Y-73377096D01*
X115383528Y-73390585D01*
X115348499Y-73391263D01*
X115223570Y-73384007D01*
X115102556Y-73359964D01*
X115062735Y-73347299D01*
X114954811Y-73296394D01*
X114864598Y-73227028D01*
X114853907Y-73216385D01*
X114787890Y-73133251D01*
X114740402Y-73042659D01*
X114725680Y-73004382D01*
X114699262Y-72904502D01*
X114685756Y-72803531D01*
X114682327Y-72714221D01*
X114686577Y-72614058D01*
X114701270Y-72512735D01*
X114729553Y-72413402D01*
X114736060Y-72396706D01*
X114782485Y-72304222D01*
X114845570Y-72219379D01*
X114885048Y-72180307D01*
X114980620Y-72110848D01*
X115089876Y-72060923D01*
X115105478Y-72055743D01*
X115227864Y-72026992D01*
X115358033Y-72015843D01*
X115375976Y-72015687D01*
X115501621Y-72023685D01*
X115523743Y-72026922D01*
X115642595Y-72053304D01*
X115653803Y-72056720D01*
X115759438Y-72098729D01*
X115827215Y-72138785D01*
X115855914Y-72163698D01*
X115868126Y-72182260D01*
X115874232Y-72204242D01*
X115876064Y-72232086D01*
X115861409Y-72282889D01*
X115829658Y-72297055D01*
X115770429Y-72272630D01*
X115680059Y-72218897D01*
X115570804Y-72172915D01*
X115546946Y-72165163D01*
X115425338Y-72143124D01*
X115360711Y-72140739D01*
X115231315Y-72155050D01*
X115111845Y-72203851D01*
X115024022Y-72278269D01*
X115016329Y-72287285D01*
X114957886Y-72379759D01*
X114921994Y-72479280D01*
X114902985Y-72579735D01*
X114895547Y-72692672D01*
X114895429Y-72709825D01*
X114899980Y-72809430D01*
X114915181Y-72906483D01*
X114927791Y-72954068D01*
X114967786Y-73049811D01*
X115021824Y-73127969D01*
X115108407Y-73201127D01*
X115170202Y-73232016D01*
X115288173Y-73261402D01*
X115367428Y-73266210D01*
X115492350Y-73253588D01*
X115549389Y-73236901D01*
X115656436Y-73189640D01*
X115686775Y-73172421D01*
X115781438Y-73109778D01*
X115783862Y-73107941D01*
X115841870Y-73078632D01*
X115859577Y-73083028D01*
X115872400Y-73096706D01*
X115880338Y-73118688D01*
X115882780Y-73148485D01*
G37*
G36*
X117033775Y-73282330D02*
G01*
X117027669Y-73323852D01*
X117008740Y-73349253D01*
X116970882Y-73365861D01*
X116913485Y-73379539D01*
X116845097Y-73387843D01*
X116774267Y-73391263D01*
X116650003Y-73382308D01*
X116578872Y-73365861D01*
X116474115Y-73312922D01*
X116446371Y-73288681D01*
X116387150Y-73200116D01*
X116371877Y-73157766D01*
X116353115Y-73059226D01*
X116348674Y-72970188D01*
X116348674Y-72172002D01*
X116116643Y-72172002D01*
X116078785Y-72156859D01*
X116065352Y-72109965D01*
X116068405Y-72082121D01*
X116078785Y-72062581D01*
X116095272Y-72050858D01*
X116116643Y-72046950D01*
X116348674Y-72046950D01*
X116348674Y-71739204D01*
X116352948Y-71724061D01*
X116368824Y-71712337D01*
X116400575Y-71705498D01*
X116450034Y-71703056D01*
X116500104Y-71705498D01*
X116531245Y-71712337D01*
X116547121Y-71724061D01*
X116552616Y-71739204D01*
X116552616Y-72046950D01*
X116982484Y-72046950D01*
X117003244Y-72050858D01*
X117019731Y-72062581D01*
X117030111Y-72082121D01*
X117033775Y-72109965D01*
X117019120Y-72156859D01*
X116982484Y-72172002D01*
X116552616Y-72172002D01*
X116552616Y-72961395D01*
X116559743Y-73063176D01*
X116588696Y-73162387D01*
X116603297Y-73188541D01*
X116699324Y-73255288D01*
X116788311Y-73266210D01*
X116862805Y-73259371D01*
X116922034Y-73244228D01*
X116965387Y-73229085D01*
X116997749Y-73222247D01*
X117013014Y-73225177D01*
X117024005Y-73235436D01*
X117031332Y-73254487D01*
X117033775Y-73282330D01*
G37*
G36*
X118297732Y-72108988D02*
G01*
X118295900Y-72138785D01*
X118289794Y-72160767D01*
X118279413Y-72174445D01*
X118263538Y-72178841D01*
X118226901Y-72172979D01*
X118179274Y-72159790D01*
X118118824Y-72147090D01*
X118046772Y-72140739D01*
X117955792Y-72158813D01*
X117861758Y-72216943D01*
X117782078Y-72295332D01*
X117758565Y-72322944D01*
X117694445Y-72406561D01*
X117639497Y-72484633D01*
X117639497Y-73324340D01*
X117634002Y-73339483D01*
X117618126Y-73350718D01*
X117586985Y-73357557D01*
X117536915Y-73360000D01*
X117487456Y-73357557D01*
X117455704Y-73350718D01*
X117439829Y-73339483D01*
X117435554Y-73324340D01*
X117435554Y-72082609D01*
X117439829Y-72067466D01*
X117455704Y-72055743D01*
X117486235Y-72048904D01*
X117533251Y-72046950D01*
X117581489Y-72048904D01*
X117610799Y-72055743D01*
X117625453Y-72067466D01*
X117629727Y-72082609D01*
X117629727Y-72278981D01*
X117701812Y-72195364D01*
X117753070Y-72144647D01*
X117841720Y-72076456D01*
X117861147Y-72065024D01*
X117961898Y-72025945D01*
X118062648Y-72015687D01*
X118113939Y-72017641D01*
X118176831Y-72023503D01*
X118236671Y-72034249D01*
X118273307Y-72045484D01*
X118287351Y-72054766D01*
X118293457Y-72065024D01*
X118296510Y-72081632D01*
X118297732Y-72108988D01*
G37*
G36*
X118846057Y-73324340D02*
G01*
X118840561Y-73339483D01*
X118824685Y-73350718D01*
X118793545Y-73357557D01*
X118743475Y-73360000D01*
X118694016Y-73357557D01*
X118662264Y-73350718D01*
X118646388Y-73339483D01*
X118642114Y-73324340D01*
X118642114Y-72082609D01*
X118646388Y-72067466D01*
X118662264Y-72055743D01*
X118694016Y-72048904D01*
X118743475Y-72046950D01*
X118793545Y-72048904D01*
X118824685Y-72055743D01*
X118840561Y-72067466D01*
X118846057Y-72082609D01*
X118846057Y-73324340D01*
G37*
G36*
X118877198Y-71655673D02*
G01*
X118847889Y-71743112D01*
X118741643Y-71765582D01*
X118637229Y-71743600D01*
X118609141Y-71656650D01*
X118638450Y-71569699D01*
X118744696Y-71546741D01*
X118848499Y-71569211D01*
X118877198Y-71655673D01*
G37*
G36*
X120498970Y-73148485D02*
G01*
X120497138Y-73174863D01*
X120491643Y-73195380D01*
X120482484Y-73211988D01*
X120453785Y-73239832D01*
X120379291Y-73288681D01*
X120270169Y-73338111D01*
X120262055Y-73340949D01*
X120144412Y-73372479D01*
X120121004Y-73377096D01*
X119999718Y-73390585D01*
X119964689Y-73391263D01*
X119839760Y-73384007D01*
X119718745Y-73359964D01*
X119678925Y-73347299D01*
X119571001Y-73296394D01*
X119480788Y-73227028D01*
X119470097Y-73216385D01*
X119404080Y-73133251D01*
X119356592Y-73042659D01*
X119341870Y-73004382D01*
X119315451Y-72904502D01*
X119301946Y-72803531D01*
X119298517Y-72714221D01*
X119302767Y-72614058D01*
X119317460Y-72512735D01*
X119345743Y-72413402D01*
X119352250Y-72396706D01*
X119398675Y-72304222D01*
X119461760Y-72219379D01*
X119501238Y-72180307D01*
X119596810Y-72110848D01*
X119706066Y-72060923D01*
X119721667Y-72055743D01*
X119844054Y-72026992D01*
X119974223Y-72015843D01*
X119992166Y-72015687D01*
X120117811Y-72023685D01*
X120139933Y-72026922D01*
X120258785Y-72053304D01*
X120269993Y-72056720D01*
X120375628Y-72098729D01*
X120443405Y-72138785D01*
X120472103Y-72163698D01*
X120484316Y-72182260D01*
X120490422Y-72204242D01*
X120492254Y-72232086D01*
X120477599Y-72282889D01*
X120445847Y-72297055D01*
X120386618Y-72272630D01*
X120296249Y-72218897D01*
X120186994Y-72172915D01*
X120163136Y-72165163D01*
X120041528Y-72143124D01*
X119976901Y-72140739D01*
X119847505Y-72155050D01*
X119728035Y-72203851D01*
X119640212Y-72278269D01*
X119632519Y-72287285D01*
X119574076Y-72379759D01*
X119538183Y-72479280D01*
X119519175Y-72579735D01*
X119511737Y-72692672D01*
X119511618Y-72709825D01*
X119516169Y-72809430D01*
X119531371Y-72906483D01*
X119543981Y-72954068D01*
X119583975Y-73049811D01*
X119638014Y-73127969D01*
X119724596Y-73201127D01*
X119786392Y-73232016D01*
X119904363Y-73261402D01*
X119983618Y-73266210D01*
X120108539Y-73253588D01*
X120165579Y-73236901D01*
X120272626Y-73189640D01*
X120302965Y-73172421D01*
X120397628Y-73109778D01*
X120400052Y-73107941D01*
X120458060Y-73078632D01*
X120475767Y-73083028D01*
X120488590Y-73096706D01*
X120496528Y-73118688D01*
X120498970Y-73148485D01*
G37*
G36*
X121512499Y-72021671D02*
G01*
X121637865Y-72043164D01*
X121651796Y-72046950D01*
X121762114Y-72090776D01*
X121829483Y-72136831D01*
X121899178Y-72220179D01*
X121926570Y-72280446D01*
X121949439Y-72377372D01*
X121955879Y-72473886D01*
X121955879Y-73323852D01*
X121944277Y-73345833D01*
X121914968Y-73356580D01*
X121866730Y-73360000D01*
X121816660Y-73356580D01*
X121784909Y-73345833D01*
X121773918Y-73324340D01*
X121773918Y-73185610D01*
X121685058Y-73253634D01*
X121581475Y-73314809D01*
X121542498Y-73333621D01*
X121430566Y-73373025D01*
X121306489Y-73390756D01*
X121281158Y-73391263D01*
X121158469Y-73383956D01*
X121061950Y-73365373D01*
X120947409Y-73322357D01*
X120897697Y-73292100D01*
X120817794Y-73212488D01*
X120795115Y-73175840D01*
X120763346Y-73079139D01*
X120759089Y-73022944D01*
X120760151Y-73015129D01*
X120975244Y-73015129D01*
X120993893Y-73112201D01*
X121060118Y-73197822D01*
X121169943Y-73251184D01*
X121299476Y-73266210D01*
X121424577Y-73251183D01*
X121527233Y-73212965D01*
X121629083Y-73149818D01*
X121721911Y-73074426D01*
X121751325Y-73047369D01*
X121751325Y-72734738D01*
X121468004Y-72734738D01*
X121345569Y-72740114D01*
X121251849Y-72753789D01*
X121134203Y-72790259D01*
X121096755Y-72809476D01*
X121013140Y-72885184D01*
X121005163Y-72897892D01*
X120975974Y-72994878D01*
X120975244Y-73015129D01*
X120760151Y-73015129D01*
X120772370Y-72925247D01*
X120812212Y-72841228D01*
X120886078Y-72762591D01*
X120963032Y-72712756D01*
X121078513Y-72665185D01*
X121198726Y-72635575D01*
X121324783Y-72617877D01*
X121452301Y-72610318D01*
X121504030Y-72609685D01*
X121751325Y-72609685D01*
X121751325Y-72493426D01*
X121743216Y-72393592D01*
X121730565Y-72341018D01*
X121683055Y-72250632D01*
X121664009Y-72230132D01*
X121566137Y-72170639D01*
X121543719Y-72163210D01*
X121420793Y-72142517D01*
X121363590Y-72140739D01*
X121237090Y-72149154D01*
X121177965Y-72160279D01*
X121061464Y-72193027D01*
X121033251Y-72203265D01*
X120931280Y-72246741D01*
X120873883Y-72265792D01*
X120854954Y-72263838D01*
X120840300Y-72255533D01*
X120831751Y-72240390D01*
X120829309Y-72217920D01*
X120834193Y-72181772D01*
X120861060Y-72154417D01*
X120937386Y-72114849D01*
X121050531Y-72070248D01*
X121063782Y-72066001D01*
X121182117Y-72036258D01*
X121217655Y-72029853D01*
X121341303Y-72016572D01*
X121382519Y-72015687D01*
X121512499Y-72021671D01*
G37*
G36*
X122717306Y-73324340D02*
G01*
X122711810Y-73339483D01*
X122695935Y-73350718D01*
X122664794Y-73357557D01*
X122614724Y-73360000D01*
X122565265Y-73357557D01*
X122533513Y-73350718D01*
X122517637Y-73339483D01*
X122513363Y-73324340D01*
X122513363Y-71488122D01*
X122517637Y-71473468D01*
X122533513Y-71461744D01*
X122565265Y-71454905D01*
X122614724Y-71452951D01*
X122664794Y-71454905D01*
X122695935Y-71461744D01*
X122711810Y-71473468D01*
X122717306Y-71488122D01*
X122717306Y-73324340D01*
G37*
G36*
X124721850Y-72021671D02*
G01*
X124847216Y-72043164D01*
X124861147Y-72046950D01*
X124971465Y-72090776D01*
X125038834Y-72136831D01*
X125108529Y-72220179D01*
X125135921Y-72280446D01*
X125158790Y-72377372D01*
X125165230Y-72473886D01*
X125165230Y-73323852D01*
X125153628Y-73345833D01*
X125124319Y-73356580D01*
X125076081Y-73360000D01*
X125026011Y-73356580D01*
X124994260Y-73345833D01*
X124983269Y-73324340D01*
X124983269Y-73185610D01*
X124894409Y-73253634D01*
X124790826Y-73314809D01*
X124751849Y-73333621D01*
X124639917Y-73373025D01*
X124515840Y-73390756D01*
X124490509Y-73391263D01*
X124367820Y-73383956D01*
X124271301Y-73365373D01*
X124156760Y-73322357D01*
X124107048Y-73292100D01*
X124027145Y-73212488D01*
X124004466Y-73175840D01*
X123972697Y-73079139D01*
X123968440Y-73022944D01*
X123969502Y-73015129D01*
X124184595Y-73015129D01*
X124203244Y-73112201D01*
X124269469Y-73197822D01*
X124379294Y-73251184D01*
X124508827Y-73266210D01*
X124633928Y-73251183D01*
X124736584Y-73212965D01*
X124838434Y-73149818D01*
X124931262Y-73074426D01*
X124960676Y-73047369D01*
X124960676Y-72734738D01*
X124677355Y-72734738D01*
X124554920Y-72740114D01*
X124461200Y-72753789D01*
X124343554Y-72790259D01*
X124306106Y-72809476D01*
X124222491Y-72885184D01*
X124214515Y-72897892D01*
X124185325Y-72994878D01*
X124184595Y-73015129D01*
X123969502Y-73015129D01*
X123981721Y-72925247D01*
X124021563Y-72841228D01*
X124095429Y-72762591D01*
X124172383Y-72712756D01*
X124287864Y-72665185D01*
X124408077Y-72635575D01*
X124534134Y-72617877D01*
X124661652Y-72610318D01*
X124713381Y-72609685D01*
X124960676Y-72609685D01*
X124960676Y-72493426D01*
X124952567Y-72393592D01*
X124939916Y-72341018D01*
X124892406Y-72250632D01*
X124873360Y-72230132D01*
X124775488Y-72170639D01*
X124753070Y-72163210D01*
X124630144Y-72142517D01*
X124572941Y-72140739D01*
X124446441Y-72149154D01*
X124387316Y-72160279D01*
X124270815Y-72193027D01*
X124242602Y-72203265D01*
X124140631Y-72246741D01*
X124083234Y-72265792D01*
X124064305Y-72263838D01*
X124049651Y-72255533D01*
X124041102Y-72240390D01*
X124038660Y-72217920D01*
X124043545Y-72181772D01*
X124070411Y-72154417D01*
X124146737Y-72114849D01*
X124259882Y-72070248D01*
X124273133Y-72066001D01*
X124391468Y-72036258D01*
X124427006Y-72029853D01*
X124550654Y-72016572D01*
X124591870Y-72015687D01*
X124721850Y-72021671D01*
G37*
G36*
X126983007Y-73323852D02*
G01*
X126977512Y-73339483D01*
X126961636Y-73350718D01*
X126930495Y-73357557D01*
X126881646Y-73360000D01*
X126830355Y-73357069D01*
X126799825Y-73350230D01*
X126783339Y-73338995D01*
X126778454Y-73323363D01*
X126778454Y-72569141D01*
X126773490Y-72468191D01*
X126755861Y-72377655D01*
X126712591Y-72282474D01*
X126689305Y-72251137D01*
X126600345Y-72181209D01*
X126575122Y-72169560D01*
X126457656Y-72142540D01*
X126412700Y-72140739D01*
X126286839Y-72160178D01*
X126175785Y-72209616D01*
X126077522Y-72276220D01*
X125991229Y-72349200D01*
X125926657Y-72411849D01*
X125926657Y-73323363D01*
X125921161Y-73338995D01*
X125905286Y-73350230D01*
X125874145Y-73357069D01*
X125824075Y-73360000D01*
X125774616Y-73357557D01*
X125742864Y-73350718D01*
X125726988Y-73339483D01*
X125722714Y-73324340D01*
X125722714Y-72082609D01*
X125726988Y-72067466D01*
X125742864Y-72055743D01*
X125773394Y-72048904D01*
X125820411Y-72046950D01*
X125868649Y-72048904D01*
X125897958Y-72055743D01*
X125912613Y-72067466D01*
X125916887Y-72082609D01*
X125916887Y-72258464D01*
X125999987Y-72185392D01*
X126098447Y-72115966D01*
X126179448Y-72073328D01*
X126291831Y-72033925D01*
X126419410Y-72015912D01*
X126435293Y-72015687D01*
X126559630Y-72023728D01*
X126679118Y-72052610D01*
X126692358Y-72057697D01*
X126797566Y-72113682D01*
X126861496Y-72170048D01*
X126922719Y-72257151D01*
X126954309Y-72335157D01*
X126974908Y-72432129D01*
X126982559Y-72530062D01*
X126983007Y-72562791D01*
X126983007Y-73323852D01*
G37*
G36*
X128740945Y-71455882D02*
G01*
X128772086Y-71462721D01*
X128787962Y-71473468D01*
X128793457Y-71488611D01*
X128793457Y-73324340D01*
X128789183Y-73340949D01*
X128773307Y-73352184D01*
X128745219Y-73358046D01*
X128702477Y-73360000D01*
X128656681Y-73358046D01*
X128627372Y-73352184D01*
X128610275Y-73341926D01*
X128604169Y-73326294D01*
X128604169Y-73156789D01*
X128518289Y-73226475D01*
X128422132Y-73289856D01*
X128348325Y-73328736D01*
X128237132Y-73369220D01*
X128108370Y-73389736D01*
X128060118Y-73391263D01*
X127931453Y-73382475D01*
X127811373Y-73353357D01*
X127773133Y-73338018D01*
X127671739Y-73279378D01*
X127589664Y-73204209D01*
X127580181Y-73192937D01*
X127519064Y-73100430D01*
X127477757Y-73001695D01*
X127470882Y-72978981D01*
X127448743Y-72876545D01*
X127438325Y-72777695D01*
X127436688Y-72718129D01*
X127437770Y-72692728D01*
X127649790Y-72692728D01*
X127654218Y-72793564D01*
X127667500Y-72891824D01*
X127669940Y-72904731D01*
X127698028Y-73002184D01*
X127740771Y-73088401D01*
X127811637Y-73172920D01*
X127873272Y-73217850D01*
X127985583Y-73258229D01*
X128079047Y-73266210D01*
X128198726Y-73251556D01*
X128311319Y-73205989D01*
X128319016Y-73201730D01*
X128414499Y-73138441D01*
X128447243Y-73112337D01*
X128528998Y-73038069D01*
X128588904Y-72976538D01*
X128588904Y-72421618D01*
X128509334Y-72342478D01*
X128424011Y-72270080D01*
X128340997Y-72213035D01*
X128234592Y-72163614D01*
X128115658Y-72141375D01*
X128091259Y-72140739D01*
X127968813Y-72155886D01*
X127888538Y-72188611D01*
X127799453Y-72256308D01*
X127751151Y-72315129D01*
X127700468Y-72409702D01*
X127673604Y-72492449D01*
X127655744Y-72591856D01*
X127649790Y-72692728D01*
X127437770Y-72692728D01*
X127440862Y-72620175D01*
X127455096Y-72519587D01*
X127479431Y-72426503D01*
X127521306Y-72327298D01*
X127581279Y-72234707D01*
X127606437Y-72205219D01*
X127694021Y-72128920D01*
X127798778Y-72071296D01*
X127814043Y-72065024D01*
X127929982Y-72031297D01*
X128051035Y-72016891D01*
X128101029Y-72015687D01*
X128227897Y-72026957D01*
X128344031Y-72060767D01*
X128358705Y-72066978D01*
X128467371Y-72125689D01*
X128560463Y-72193763D01*
X128588904Y-72217920D01*
X128588904Y-71487634D01*
X128593178Y-71472979D01*
X128609054Y-71462233D01*
X128640806Y-71455882D01*
X128690265Y-71452951D01*
X128740945Y-71455882D01*
G37*
G36*
X131640718Y-73141646D02*
G01*
X131638886Y-73164605D01*
X131633391Y-73182191D01*
X131624232Y-73196845D01*
X131601639Y-73216873D01*
X131530809Y-73260348D01*
X131422562Y-73308918D01*
X131392201Y-73319944D01*
X131272426Y-73354836D01*
X131201081Y-73370258D01*
X131079873Y-73386647D01*
X130962334Y-73391263D01*
X130835251Y-73385490D01*
X130704276Y-73365807D01*
X130582536Y-73332156D01*
X130471750Y-73284719D01*
X130372797Y-73224353D01*
X130293108Y-73158255D01*
X130217670Y-73073100D01*
X130160235Y-72984867D01*
X130113414Y-72886331D01*
X130109316Y-72875910D01*
X130078323Y-72777679D01*
X130057474Y-72672028D01*
X130047456Y-72571889D01*
X130045202Y-72492937D01*
X130049476Y-72385379D01*
X130062299Y-72283499D01*
X130083670Y-72187298D01*
X130113590Y-72096775D01*
X130156797Y-72002344D01*
X130215115Y-71907299D01*
X130284285Y-71822653D01*
X130307152Y-71799288D01*
X130398634Y-71721805D01*
X130501805Y-71657944D01*
X130605739Y-71611709D01*
X130730129Y-71574720D01*
X130850724Y-71554418D01*
X130978474Y-71546804D01*
X130991643Y-71546741D01*
X131113669Y-71553228D01*
X131184595Y-71563349D01*
X131306125Y-71589670D01*
X131356786Y-71604382D01*
X131470380Y-71648078D01*
X131498447Y-71662023D01*
X131584542Y-71714291D01*
X131613852Y-71740669D01*
X131623011Y-71755324D01*
X131628506Y-71773886D01*
X131630338Y-71796845D01*
X131627896Y-71823224D01*
X131619347Y-71842763D01*
X131604692Y-71854975D01*
X131583932Y-71859371D01*
X131516154Y-71830551D01*
X131413903Y-71772213D01*
X131400750Y-71765582D01*
X131288062Y-71719783D01*
X131226727Y-71701102D01*
X131106055Y-71678233D01*
X130981263Y-71671793D01*
X130858489Y-71680580D01*
X130735738Y-71709699D01*
X130694277Y-71725038D01*
X130587070Y-71780924D01*
X130500288Y-71850231D01*
X130470184Y-71881353D01*
X130405870Y-71965457D01*
X130353062Y-72063162D01*
X130324249Y-72135854D01*
X130296557Y-72234887D01*
X130279122Y-72342698D01*
X130272199Y-72447232D01*
X130271737Y-72483656D01*
X130275553Y-72585846D01*
X130288743Y-72691596D01*
X130311354Y-72789140D01*
X130319975Y-72816803D01*
X130358189Y-72911456D01*
X130411398Y-73002337D01*
X130459193Y-73062023D01*
X130540169Y-73135170D01*
X130643152Y-73196452D01*
X130683897Y-73213942D01*
X130798888Y-73247784D01*
X130925569Y-73264373D01*
X130987979Y-73266210D01*
X131110715Y-73259878D01*
X131231001Y-73237390D01*
X131349068Y-73198273D01*
X131408688Y-73172421D01*
X131511012Y-73118989D01*
X131529588Y-73107941D01*
X131602861Y-73078632D01*
X131619958Y-73081563D01*
X131630949Y-73091821D01*
X131638276Y-73111360D01*
X131640718Y-73141646D01*
G37*
G36*
X132797552Y-72022213D02*
G01*
X132924093Y-72044011D01*
X132985886Y-72062093D01*
X133096799Y-72110646D01*
X133190182Y-72175093D01*
X133213642Y-72196427D01*
X133284718Y-72280135D01*
X133335439Y-72370757D01*
X133351029Y-72408918D01*
X133379308Y-72507103D01*
X133393764Y-72604831D01*
X133397435Y-72690286D01*
X133391735Y-72791623D01*
X133372515Y-72895854D01*
X133349197Y-72969699D01*
X133302244Y-73068123D01*
X133239772Y-73155421D01*
X133205704Y-73191960D01*
X133113240Y-73266172D01*
X133011055Y-73321018D01*
X132967568Y-73338506D01*
X132844313Y-73372664D01*
X132716944Y-73388738D01*
X132636618Y-73391263D01*
X132506130Y-73384668D01*
X132379302Y-73362640D01*
X132317271Y-73344368D01*
X132206541Y-73295241D01*
X132112641Y-73230780D01*
X132088904Y-73209546D01*
X132017527Y-73125503D01*
X131966946Y-73034739D01*
X131951517Y-72996566D01*
X131923983Y-72898243D01*
X131909907Y-72800148D01*
X131906332Y-72714221D01*
X131907107Y-72700055D01*
X132123098Y-72700055D01*
X132128007Y-72797682D01*
X132144160Y-72897924D01*
X132148743Y-72917431D01*
X132182937Y-73014152D01*
X132234228Y-73098171D01*
X132315179Y-73174953D01*
X132396039Y-73220781D01*
X132517694Y-73256228D01*
X132648220Y-73266210D01*
X132770419Y-73256872D01*
X132888799Y-73223712D01*
X132991045Y-73165855D01*
X133054274Y-73106964D01*
X133113393Y-73019696D01*
X133149528Y-72929644D01*
X133171881Y-72829609D01*
X133180396Y-72729271D01*
X133180669Y-72706894D01*
X133175034Y-72603711D01*
X133158129Y-72504821D01*
X133155024Y-72491960D01*
X133120677Y-72395484D01*
X133068928Y-72311221D01*
X132988471Y-72233494D01*
X132907728Y-72187145D01*
X132786074Y-72150936D01*
X132655547Y-72140739D01*
X132533348Y-72150077D01*
X132414968Y-72183237D01*
X132312529Y-72241404D01*
X132248883Y-72300963D01*
X132190068Y-72388611D01*
X132153628Y-72478771D01*
X132131714Y-72578484D01*
X132123366Y-72677940D01*
X132123098Y-72700055D01*
X131907107Y-72700055D01*
X131911888Y-72612605D01*
X131930621Y-72508203D01*
X131953349Y-72434319D01*
X131999907Y-72336057D01*
X132062185Y-72249242D01*
X132096231Y-72213035D01*
X132188578Y-72139344D01*
X132290445Y-72085150D01*
X132333757Y-72067955D01*
X132457709Y-72034113D01*
X132586080Y-72018188D01*
X132667149Y-72015687D01*
X132797552Y-72022213D01*
G37*
G36*
X136061514Y-73323852D02*
G01*
X136056018Y-73339483D01*
X136040143Y-73350718D01*
X136009002Y-73357557D01*
X135960153Y-73360000D01*
X135908862Y-73357069D01*
X135877110Y-73350230D01*
X135861235Y-73338995D01*
X135856960Y-73323363D01*
X135856960Y-72541297D01*
X135849857Y-72440011D01*
X135836810Y-72377655D01*
X135797051Y-72282474D01*
X135775139Y-72251137D01*
X135688553Y-72179151D01*
X135668893Y-72169560D01*
X135548988Y-72141752D01*
X135516852Y-72140739D01*
X135394299Y-72162532D01*
X135297644Y-72209616D01*
X135204320Y-72276220D01*
X135119843Y-72349200D01*
X135055233Y-72411849D01*
X135055233Y-73323363D01*
X135049738Y-73338995D01*
X135033862Y-73350230D01*
X135002721Y-73357069D01*
X134953872Y-73360000D01*
X134904413Y-73357069D01*
X134872662Y-73350230D01*
X134856786Y-73338995D01*
X134852512Y-73323363D01*
X134852512Y-72541297D01*
X134845193Y-72440011D01*
X134831751Y-72377655D01*
X134790867Y-72282474D01*
X134768859Y-72251137D01*
X134682273Y-72179151D01*
X134662613Y-72169560D01*
X134542707Y-72141752D01*
X134510572Y-72140739D01*
X134388019Y-72162532D01*
X134291364Y-72209616D01*
X134198241Y-72276220D01*
X134114250Y-72349200D01*
X134050174Y-72411849D01*
X134050174Y-73323363D01*
X134044678Y-73338995D01*
X134028803Y-73350230D01*
X133997662Y-73357069D01*
X133947592Y-73360000D01*
X133898133Y-73357557D01*
X133866381Y-73350718D01*
X133850505Y-73339483D01*
X133846231Y-73324340D01*
X133846231Y-72082609D01*
X133850505Y-72067466D01*
X133866381Y-72055743D01*
X133896912Y-72048904D01*
X133943928Y-72046950D01*
X133992166Y-72048904D01*
X134021475Y-72055743D01*
X134036130Y-72067466D01*
X134040404Y-72082609D01*
X134040404Y-72258464D01*
X134122669Y-72185392D01*
X134217924Y-72115966D01*
X134294417Y-72073328D01*
X134406786Y-72031955D01*
X134533164Y-72015687D01*
X134657397Y-72025153D01*
X134707187Y-72035715D01*
X134819713Y-72078108D01*
X134842131Y-72090914D01*
X134928443Y-72161174D01*
X134941660Y-72176399D01*
X134998652Y-72263666D01*
X135008827Y-72285819D01*
X135091880Y-72212127D01*
X135160868Y-72158325D01*
X135255636Y-72096384D01*
X135296423Y-72074794D01*
X135409724Y-72032572D01*
X135420987Y-72029853D01*
X135539445Y-72015687D01*
X135666196Y-72024918D01*
X135785519Y-72057697D01*
X135886305Y-72113682D01*
X135947330Y-72170048D01*
X136005011Y-72257151D01*
X136034647Y-72335157D01*
X136054797Y-72432243D01*
X136061514Y-72534947D01*
X136061514Y-73323852D01*
G37*
G36*
X137476943Y-72024394D02*
G01*
X137596823Y-72053245D01*
X137635048Y-72068443D01*
X137736443Y-72126382D01*
X137818517Y-72201279D01*
X137828000Y-72212547D01*
X137889288Y-72304839D01*
X137930026Y-72402986D01*
X137936688Y-72425526D01*
X137958432Y-72526697D01*
X137968665Y-72624952D01*
X137970272Y-72684424D01*
X137965978Y-72783247D01*
X137951338Y-72884679D01*
X137926308Y-72978492D01*
X137883836Y-73078014D01*
X137822994Y-73170765D01*
X137797470Y-73200265D01*
X137708911Y-73276779D01*
X137602374Y-73335047D01*
X137586810Y-73341437D01*
X137470387Y-73375497D01*
X137340173Y-73390484D01*
X137300436Y-73391263D01*
X137178577Y-73380529D01*
X137170987Y-73379050D01*
X137053750Y-73342414D01*
X136949217Y-73285943D01*
X136938346Y-73278911D01*
X136844936Y-73210134D01*
X136817445Y-73187564D01*
X136817445Y-73824549D01*
X136811950Y-73839692D01*
X136796074Y-73851416D01*
X136764933Y-73858255D01*
X136714863Y-73860209D01*
X136665404Y-73858255D01*
X136633653Y-73851416D01*
X136617777Y-73839692D01*
X136613503Y-73824549D01*
X136613503Y-72430411D01*
X136817445Y-72430411D01*
X136817445Y-72983866D01*
X136896836Y-73063101D01*
X136981549Y-73135825D01*
X137063520Y-73193426D01*
X137168740Y-73243181D01*
X137294144Y-73265926D01*
X137310205Y-73266210D01*
X137432844Y-73250909D01*
X137513538Y-73217850D01*
X137603642Y-73149165D01*
X137652145Y-73089867D01*
X137700661Y-72999996D01*
X137730303Y-72911081D01*
X137749079Y-72811308D01*
X137755338Y-72711290D01*
X137750776Y-72609617D01*
X137737091Y-72511593D01*
X137734577Y-72498799D01*
X137706795Y-72401957D01*
X137664968Y-72316594D01*
X137595336Y-72232827D01*
X137534298Y-72188611D01*
X137422792Y-72148640D01*
X137329134Y-72140739D01*
X137208234Y-72155882D01*
X137098374Y-72198892D01*
X137086723Y-72205219D01*
X136991125Y-72268509D01*
X136957885Y-72294612D01*
X136876266Y-72368880D01*
X136817445Y-72430411D01*
X136613503Y-72430411D01*
X136613503Y-72082609D01*
X136617777Y-72066489D01*
X136633042Y-72055254D01*
X136662351Y-72048904D01*
X136706315Y-72046950D01*
X136749057Y-72048904D01*
X136777756Y-72054766D01*
X136794853Y-72065512D01*
X136800348Y-72080655D01*
X136800348Y-72251625D01*
X136887789Y-72182398D01*
X136937735Y-72147090D01*
X137039821Y-72086876D01*
X137068405Y-72073328D01*
X137180831Y-72034521D01*
X137202128Y-72029853D01*
X137324649Y-72016033D01*
X137348674Y-72015687D01*
X137476943Y-72024394D01*
G37*
G36*
X139684246Y-73324340D02*
G01*
X139679972Y-73339483D01*
X139663485Y-73350718D01*
X139632955Y-73357557D01*
X139586549Y-73360000D01*
X139536479Y-73357557D01*
X139507170Y-73350718D01*
X139492515Y-73339483D01*
X139488241Y-73324340D01*
X139488241Y-73148485D01*
X139405201Y-73221605D01*
X139306969Y-73291215D01*
X139226290Y-73334110D01*
X139114325Y-73373179D01*
X138986937Y-73391039D01*
X138971057Y-73391263D01*
X138846603Y-73383315D01*
X138726695Y-73354769D01*
X138713381Y-73349741D01*
X138608473Y-73293207D01*
X138544242Y-73236413D01*
X138483320Y-73148915D01*
X138451430Y-73070816D01*
X138431269Y-72973493D01*
X138423781Y-72875429D01*
X138423342Y-72842693D01*
X138423342Y-72083098D01*
X138427616Y-72067955D01*
X138443492Y-72056231D01*
X138475244Y-72049392D01*
X138524703Y-72046950D01*
X138575383Y-72049392D01*
X138606524Y-72056231D01*
X138622400Y-72068443D01*
X138627896Y-72083586D01*
X138627896Y-72836343D01*
X138632726Y-72937508D01*
X138649877Y-73028806D01*
X138691332Y-73120741D01*
X138717044Y-73155812D01*
X138806004Y-73225740D01*
X138831228Y-73237390D01*
X138948693Y-73264409D01*
X138993649Y-73266210D01*
X139119166Y-73245255D01*
X139229344Y-73191960D01*
X139319790Y-73126152D01*
X139406319Y-73048690D01*
X139479692Y-72973119D01*
X139479692Y-72082609D01*
X139483967Y-72067466D01*
X139499842Y-72055743D01*
X139531594Y-72048904D01*
X139582885Y-72046950D01*
X139631734Y-72048904D01*
X139662875Y-72055743D01*
X139678750Y-72067466D01*
X139684246Y-72082609D01*
X139684246Y-73324340D01*
G37*
G36*
X140996441Y-73282330D02*
G01*
X140990334Y-73323852D01*
X140971406Y-73349253D01*
X140933548Y-73365861D01*
X140876151Y-73379539D01*
X140807763Y-73387843D01*
X140736933Y-73391263D01*
X140612669Y-73382308D01*
X140541538Y-73365861D01*
X140436781Y-73312922D01*
X140409036Y-73288681D01*
X140349816Y-73200116D01*
X140334542Y-73157766D01*
X140315781Y-73059226D01*
X140311339Y-72970188D01*
X140311339Y-72172002D01*
X140079309Y-72172002D01*
X140041451Y-72156859D01*
X140028018Y-72109965D01*
X140031071Y-72082121D01*
X140041451Y-72062581D01*
X140057937Y-72050858D01*
X140079309Y-72046950D01*
X140311339Y-72046950D01*
X140311339Y-71739204D01*
X140315614Y-71724061D01*
X140331489Y-71712337D01*
X140363241Y-71705498D01*
X140412700Y-71703056D01*
X140462770Y-71705498D01*
X140493911Y-71712337D01*
X140509787Y-71724061D01*
X140515282Y-71739204D01*
X140515282Y-72046950D01*
X140945150Y-72046950D01*
X140965910Y-72050858D01*
X140982397Y-72062581D01*
X140992777Y-72082121D01*
X140996441Y-72109965D01*
X140981786Y-72156859D01*
X140945150Y-72172002D01*
X140515282Y-72172002D01*
X140515282Y-72961395D01*
X140522409Y-73063176D01*
X140551362Y-73162387D01*
X140565963Y-73188541D01*
X140661990Y-73255288D01*
X140750976Y-73266210D01*
X140825471Y-73259371D01*
X140884699Y-73244228D01*
X140928053Y-73229085D01*
X140960415Y-73222247D01*
X140975680Y-73225177D01*
X140986671Y-73235436D01*
X140993998Y-73254487D01*
X140996441Y-73282330D01*
G37*
G36*
X142099378Y-72022488D02*
G01*
X142225752Y-72047612D01*
X142273831Y-72064047D01*
X142380243Y-72116683D01*
X142472158Y-72188918D01*
X142477163Y-72193984D01*
X142546314Y-72282278D01*
X142591457Y-72377254D01*
X142593789Y-72384005D01*
X142619251Y-72480616D01*
X142630454Y-72581529D01*
X142631036Y-72611151D01*
X142631036Y-72645345D01*
X142598063Y-72715687D01*
X142535170Y-72734738D01*
X141475767Y-72734738D01*
X141481143Y-72836345D01*
X141498835Y-72935456D01*
X141503855Y-72954068D01*
X141544515Y-73050013D01*
X141597278Y-73121618D01*
X141688855Y-73193204D01*
X141767637Y-73229085D01*
X141892667Y-73258053D01*
X142015819Y-73266174D01*
X142025314Y-73266210D01*
X142151585Y-73260677D01*
X142218876Y-73252044D01*
X142338866Y-73227059D01*
X142367254Y-73219316D01*
X142470446Y-73187076D01*
X142528454Y-73172421D01*
X142547383Y-73176329D01*
X142560816Y-73187564D01*
X142568754Y-73207103D01*
X142571196Y-73236901D01*
X142569364Y-73253021D01*
X142565090Y-73267187D01*
X142557152Y-73279888D01*
X142543719Y-73291612D01*
X142490596Y-73314570D01*
X142373970Y-73347787D01*
X142252498Y-73370777D01*
X142206053Y-73377585D01*
X142081260Y-73389339D01*
X142000889Y-73391263D01*
X141871545Y-73385080D01*
X141744407Y-73364429D01*
X141681542Y-73347299D01*
X141568675Y-73300362D01*
X141472638Y-73237344D01*
X141448290Y-73216385D01*
X141374242Y-73132783D01*
X141321180Y-73040921D01*
X141304797Y-73001939D01*
X141275030Y-72900251D01*
X141259813Y-72797018D01*
X141255949Y-72705429D01*
X141261312Y-72609685D01*
X141475767Y-72609685D01*
X142419766Y-72609685D01*
X142414766Y-72505333D01*
X142390622Y-72402387D01*
X142340795Y-72305949D01*
X142306803Y-72264815D01*
X142212521Y-72194174D01*
X142092552Y-72152856D01*
X141961200Y-72140739D01*
X141838883Y-72153104D01*
X141756036Y-72179818D01*
X141656621Y-72238589D01*
X141607048Y-72283377D01*
X141541694Y-72371991D01*
X141513014Y-72432854D01*
X141485301Y-72530639D01*
X141475767Y-72609685D01*
X141261312Y-72609685D01*
X141261937Y-72598529D01*
X141279903Y-72499479D01*
X141306629Y-72416245D01*
X141354962Y-72318708D01*
X141417604Y-72234071D01*
X141451343Y-72199357D01*
X141541519Y-72129273D01*
X141646422Y-72075458D01*
X141679099Y-72063070D01*
X141801299Y-72030679D01*
X141925027Y-72016844D01*
X141975244Y-72015687D01*
X142099378Y-72022488D01*
G37*
G36*
X143955443Y-72108988D02*
G01*
X143953611Y-72138785D01*
X143947505Y-72160767D01*
X143937124Y-72174445D01*
X143921249Y-72178841D01*
X143884612Y-72172979D01*
X143836985Y-72159790D01*
X143776535Y-72147090D01*
X143704483Y-72140739D01*
X143613503Y-72158813D01*
X143519469Y-72216943D01*
X143439789Y-72295332D01*
X143416277Y-72322944D01*
X143352156Y-72406561D01*
X143297208Y-72484633D01*
X143297208Y-73324340D01*
X143291713Y-73339483D01*
X143275837Y-73350718D01*
X143244696Y-73357557D01*
X143194626Y-73360000D01*
X143145167Y-73357557D01*
X143113415Y-73350718D01*
X143097540Y-73339483D01*
X143093265Y-73324340D01*
X143093265Y-72082609D01*
X143097540Y-72067466D01*
X143113415Y-72055743D01*
X143143946Y-72048904D01*
X143190963Y-72046950D01*
X143239200Y-72048904D01*
X143268510Y-72055743D01*
X143283164Y-72067466D01*
X143287438Y-72082609D01*
X143287438Y-72278981D01*
X143359523Y-72195364D01*
X143410781Y-72144647D01*
X143499431Y-72076456D01*
X143518859Y-72065024D01*
X143619609Y-72025945D01*
X143720359Y-72015687D01*
X143771650Y-72017641D01*
X143834542Y-72023503D01*
X143894382Y-72034249D01*
X143931018Y-72045484D01*
X143945062Y-72054766D01*
X143951168Y-72065024D01*
X143954221Y-72081632D01*
X143955443Y-72108988D01*
G37*
G36*
X146320324Y-73297962D02*
G01*
X146316660Y-73324829D01*
X146305669Y-73344368D01*
X146287351Y-73356092D01*
X146265369Y-73360000D01*
X145224895Y-73360000D01*
X145161392Y-73341437D01*
X145129030Y-73273049D01*
X145129030Y-71664954D01*
X145161392Y-71596566D01*
X145224895Y-71578004D01*
X146250104Y-71578004D01*
X146272086Y-71581912D01*
X146289183Y-71594124D01*
X146299563Y-71614152D01*
X146303227Y-71642484D01*
X146299563Y-71668862D01*
X146289183Y-71687913D01*
X146272086Y-71699148D01*
X146250104Y-71703056D01*
X145338468Y-71703056D01*
X145338468Y-72359581D01*
X146124930Y-72359581D01*
X146148743Y-72363977D01*
X146165840Y-72375701D01*
X146176221Y-72396217D01*
X146179884Y-72425038D01*
X146176221Y-72451905D01*
X146165840Y-72470467D01*
X146148743Y-72481214D01*
X146124930Y-72484633D01*
X145338468Y-72484633D01*
X145338468Y-73234947D01*
X146265369Y-73234947D01*
X146287351Y-73238855D01*
X146305669Y-73250579D01*
X146316660Y-73270118D01*
X146320324Y-73297962D01*
G37*
G36*
X148061165Y-73323852D02*
G01*
X148055669Y-73339483D01*
X148039794Y-73350718D01*
X148008653Y-73357557D01*
X147959804Y-73360000D01*
X147908513Y-73357069D01*
X147877983Y-73350230D01*
X147861496Y-73338995D01*
X147856612Y-73323363D01*
X147856612Y-72569141D01*
X147851647Y-72468191D01*
X147834019Y-72377655D01*
X147790749Y-72282474D01*
X147767463Y-72251137D01*
X147678503Y-72181209D01*
X147653279Y-72169560D01*
X147535814Y-72142540D01*
X147490858Y-72140739D01*
X147364996Y-72160178D01*
X147253942Y-72209616D01*
X147155680Y-72276220D01*
X147069386Y-72349200D01*
X147004815Y-72411849D01*
X147004815Y-73323363D01*
X146999319Y-73338995D01*
X146983443Y-73350230D01*
X146952302Y-73357069D01*
X146902233Y-73360000D01*
X146852773Y-73357557D01*
X146821022Y-73350718D01*
X146805146Y-73339483D01*
X146800872Y-73324340D01*
X146800872Y-72082609D01*
X146805146Y-72067466D01*
X146821022Y-72055743D01*
X146851552Y-72048904D01*
X146898569Y-72046950D01*
X146946807Y-72048904D01*
X146976116Y-72055743D01*
X146990771Y-72067466D01*
X146995045Y-72082609D01*
X146995045Y-72258464D01*
X147078145Y-72185392D01*
X147176605Y-72115966D01*
X147257606Y-72073328D01*
X147369989Y-72033925D01*
X147497567Y-72015912D01*
X147513450Y-72015687D01*
X147637788Y-72023728D01*
X147757276Y-72052610D01*
X147770516Y-72057697D01*
X147875724Y-72113682D01*
X147939654Y-72170048D01*
X148000877Y-72257151D01*
X148032466Y-72335157D01*
X148053065Y-72432129D01*
X148060716Y-72530062D01*
X148061165Y-72562791D01*
X148061165Y-73323852D01*
G37*
G36*
X149236538Y-72023939D02*
G01*
X149240247Y-72024480D01*
X149349546Y-72046950D01*
X149808112Y-72046950D01*
X149850244Y-72063070D01*
X149863066Y-72109965D01*
X149847191Y-72158325D01*
X149808112Y-72172002D01*
X149562648Y-72172002D01*
X149635539Y-72254969D01*
X149662787Y-72308778D01*
X149688095Y-72408956D01*
X149691486Y-72464117D01*
X149680953Y-72567065D01*
X149649354Y-72658046D01*
X149590750Y-72745080D01*
X149529675Y-72801660D01*
X149427765Y-72861626D01*
X149345882Y-72891542D01*
X149226620Y-72915554D01*
X149110799Y-72922316D01*
X148984098Y-72912966D01*
X148911741Y-72898381D01*
X148797140Y-72857719D01*
X148763974Y-72838785D01*
X148706577Y-72901800D01*
X148684595Y-72983866D01*
X148746877Y-73071793D01*
X148861823Y-73106414D01*
X148909298Y-73109895D01*
X149330006Y-73123572D01*
X149452162Y-73133252D01*
X149530286Y-73147020D01*
X149647775Y-73184696D01*
X149693928Y-73208080D01*
X149783344Y-73279338D01*
X149805669Y-73307732D01*
X149843906Y-73402846D01*
X149847191Y-73445973D01*
X149830733Y-73545884D01*
X149805059Y-73603265D01*
X149738667Y-73686461D01*
X149674389Y-73735645D01*
X149567007Y-73789752D01*
X149449075Y-73826503D01*
X149328580Y-73848326D01*
X149201612Y-73858596D01*
X149120568Y-73860209D01*
X148991654Y-73856568D01*
X148869051Y-73844407D01*
X148810380Y-73834319D01*
X148694212Y-73803911D01*
X148600942Y-73763489D01*
X148510057Y-73693845D01*
X148482484Y-73656999D01*
X148448137Y-73559912D01*
X148445847Y-73525108D01*
X148447133Y-73516315D01*
X148648569Y-73516315D01*
X148680473Y-73611081D01*
X148776186Y-73679469D01*
X148896898Y-73715525D01*
X149024856Y-73731676D01*
X149132780Y-73735157D01*
X149257985Y-73729790D01*
X149374581Y-73710732D01*
X149490470Y-73670432D01*
X149531507Y-73647229D01*
X149610647Y-73569491D01*
X149617602Y-73556859D01*
X149643023Y-73461169D01*
X149643248Y-73450858D01*
X149610743Y-73352598D01*
X149551046Y-73303824D01*
X149435981Y-73262562D01*
X149314565Y-73248457D01*
X149304972Y-73248136D01*
X148853122Y-73234947D01*
X148762027Y-73303389D01*
X148751762Y-73312616D01*
X148688869Y-73382958D01*
X148657117Y-73449881D01*
X148648569Y-73516315D01*
X148447133Y-73516315D01*
X148459281Y-73433272D01*
X148501413Y-73351695D01*
X148572243Y-73276468D01*
X148662510Y-73207403D01*
X148669330Y-73202707D01*
X148567470Y-73144578D01*
X148540491Y-73117711D01*
X148500220Y-73024799D01*
X148499581Y-73010732D01*
X148515562Y-72913531D01*
X148540491Y-72862721D01*
X148608695Y-72776844D01*
X148640020Y-72746950D01*
X148578196Y-72660854D01*
X148563084Y-72629713D01*
X148538290Y-72529950D01*
X148535632Y-72477306D01*
X148745045Y-72477306D01*
X148758698Y-72580117D01*
X148804302Y-72671341D01*
X148842131Y-72711779D01*
X148942042Y-72770216D01*
X149061606Y-72795177D01*
X149114462Y-72797264D01*
X149235893Y-72783385D01*
X149276884Y-72770397D01*
X149376527Y-72711845D01*
X149391067Y-72698101D01*
X149450202Y-72611007D01*
X149457623Y-72592588D01*
X149479135Y-72495130D01*
X149480216Y-72466559D01*
X149468744Y-72369293D01*
X149425605Y-72274584D01*
X149383129Y-72227201D01*
X149282634Y-72168096D01*
X149161481Y-72142850D01*
X149107745Y-72140739D01*
X148983067Y-72155852D01*
X148947156Y-72167606D01*
X148848704Y-72226854D01*
X148834193Y-72240879D01*
X148774624Y-72329145D01*
X148767027Y-72347857D01*
X148746097Y-72447737D01*
X148745045Y-72477306D01*
X148535632Y-72477306D01*
X148535607Y-72476817D01*
X148546292Y-72374846D01*
X148578349Y-72283866D01*
X148637554Y-72195887D01*
X148698028Y-72138785D01*
X148799213Y-72077832D01*
X148880600Y-72047438D01*
X148999821Y-72022664D01*
X149114462Y-72015687D01*
X149236538Y-72023939D01*
G37*
G36*
X150460851Y-73324340D02*
G01*
X150455355Y-73339483D01*
X150439480Y-73350718D01*
X150408339Y-73357557D01*
X150358269Y-73360000D01*
X150308810Y-73357557D01*
X150277058Y-73350718D01*
X150261182Y-73339483D01*
X150256908Y-73324340D01*
X150256908Y-72082609D01*
X150261182Y-72067466D01*
X150277058Y-72055743D01*
X150308810Y-72048904D01*
X150358269Y-72046950D01*
X150408339Y-72048904D01*
X150439480Y-72055743D01*
X150455355Y-72067466D01*
X150460851Y-72082609D01*
X150460851Y-73324340D01*
G37*
G36*
X150491992Y-71655673D02*
G01*
X150462683Y-71743112D01*
X150356437Y-71765582D01*
X150252023Y-71743600D01*
X150223935Y-71656650D01*
X150253244Y-71569699D01*
X150359490Y-71546741D01*
X150463293Y-71569211D01*
X150491992Y-71655673D01*
G37*
G36*
X152289009Y-73323852D02*
G01*
X152283513Y-73339483D01*
X152267637Y-73350718D01*
X152236496Y-73357557D01*
X152187648Y-73360000D01*
X152136357Y-73357069D01*
X152105826Y-73350230D01*
X152089340Y-73338995D01*
X152084455Y-73323363D01*
X152084455Y-72569141D01*
X152079491Y-72468191D01*
X152061863Y-72377655D01*
X152018593Y-72282474D01*
X151995307Y-72251137D01*
X151906346Y-72181209D01*
X151881123Y-72169560D01*
X151763657Y-72142540D01*
X151718702Y-72140739D01*
X151592840Y-72160178D01*
X151481786Y-72209616D01*
X151383524Y-72276220D01*
X151297230Y-72349200D01*
X151232658Y-72411849D01*
X151232658Y-73323363D01*
X151227163Y-73338995D01*
X151211287Y-73350230D01*
X151180146Y-73357069D01*
X151130076Y-73360000D01*
X151080617Y-73357557D01*
X151048866Y-73350718D01*
X151032990Y-73339483D01*
X151028715Y-73324340D01*
X151028715Y-72082609D01*
X151032990Y-72067466D01*
X151048866Y-72055743D01*
X151079396Y-72048904D01*
X151126413Y-72046950D01*
X151174651Y-72048904D01*
X151203960Y-72055743D01*
X151218614Y-72067466D01*
X151222889Y-72082609D01*
X151222889Y-72258464D01*
X151305988Y-72185392D01*
X151404449Y-72115966D01*
X151485450Y-72073328D01*
X151597832Y-72033925D01*
X151725411Y-72015912D01*
X151741294Y-72015687D01*
X151865631Y-72023728D01*
X151985119Y-72052610D01*
X151998360Y-72057697D01*
X152103568Y-72113682D01*
X152167498Y-72170048D01*
X152228721Y-72257151D01*
X152260310Y-72335157D01*
X152280909Y-72432129D01*
X152288560Y-72530062D01*
X152289009Y-72562791D01*
X152289009Y-73323852D01*
G37*
G36*
X153581235Y-72022488D02*
G01*
X153707609Y-72047612D01*
X153755687Y-72064047D01*
X153862099Y-72116683D01*
X153954014Y-72188918D01*
X153959019Y-72193984D01*
X154028170Y-72282278D01*
X154073313Y-72377254D01*
X154075645Y-72384005D01*
X154101107Y-72480616D01*
X154112310Y-72581529D01*
X154112892Y-72611151D01*
X154112892Y-72645345D01*
X154079919Y-72715687D01*
X154017027Y-72734738D01*
X152957623Y-72734738D01*
X152963000Y-72836345D01*
X152980692Y-72935456D01*
X152985711Y-72954068D01*
X153026371Y-73050013D01*
X153079134Y-73121618D01*
X153170712Y-73193204D01*
X153249494Y-73229085D01*
X153374524Y-73258053D01*
X153497676Y-73266174D01*
X153507170Y-73266210D01*
X153633441Y-73260677D01*
X153700732Y-73252044D01*
X153820722Y-73227059D01*
X153849110Y-73219316D01*
X153952302Y-73187076D01*
X154010310Y-73172421D01*
X154029239Y-73176329D01*
X154042672Y-73187564D01*
X154050610Y-73207103D01*
X154053053Y-73236901D01*
X154051221Y-73253021D01*
X154046946Y-73267187D01*
X154039009Y-73279888D01*
X154025575Y-73291612D01*
X153972452Y-73314570D01*
X153855826Y-73347787D01*
X153734354Y-73370777D01*
X153687909Y-73377585D01*
X153563117Y-73389339D01*
X153482745Y-73391263D01*
X153353402Y-73385080D01*
X153226264Y-73364429D01*
X153163398Y-73347299D01*
X153050531Y-73300362D01*
X152954494Y-73237344D01*
X152930146Y-73216385D01*
X152856098Y-73132783D01*
X152803037Y-73040921D01*
X152786653Y-73001939D01*
X152756886Y-72900251D01*
X152741669Y-72797018D01*
X152737805Y-72705429D01*
X152743168Y-72609685D01*
X152957623Y-72609685D01*
X153901622Y-72609685D01*
X153896623Y-72505333D01*
X153872478Y-72402387D01*
X153822652Y-72305949D01*
X153788660Y-72264815D01*
X153694377Y-72194174D01*
X153574408Y-72152856D01*
X153443056Y-72140739D01*
X153320739Y-72153104D01*
X153237892Y-72179818D01*
X153138478Y-72238589D01*
X153088904Y-72283377D01*
X153023550Y-72371991D01*
X152994870Y-72432854D01*
X152967157Y-72530639D01*
X152957623Y-72609685D01*
X152743168Y-72609685D01*
X152743793Y-72598529D01*
X152761759Y-72499479D01*
X152788485Y-72416245D01*
X152836818Y-72318708D01*
X152899461Y-72234071D01*
X152933199Y-72199357D01*
X153023376Y-72129273D01*
X153128279Y-72075458D01*
X153160956Y-72063070D01*
X153283156Y-72030679D01*
X153406883Y-72016844D01*
X153457100Y-72015687D01*
X153581235Y-72022488D01*
G37*
G36*
X155310474Y-72022488D02*
G01*
X155436848Y-72047612D01*
X155484926Y-72064047D01*
X155591338Y-72116683D01*
X155683254Y-72188918D01*
X155688258Y-72193984D01*
X155757410Y-72282278D01*
X155802552Y-72377254D01*
X155804884Y-72384005D01*
X155830346Y-72480616D01*
X155841549Y-72581529D01*
X155842131Y-72611151D01*
X155842131Y-72645345D01*
X155809159Y-72715687D01*
X155746266Y-72734738D01*
X154686863Y-72734738D01*
X154692239Y-72836345D01*
X154709931Y-72935456D01*
X154714951Y-72954068D01*
X154755610Y-73050013D01*
X154808374Y-73121618D01*
X154899951Y-73193204D01*
X154978733Y-73229085D01*
X155103763Y-73258053D01*
X155226915Y-73266174D01*
X155236409Y-73266210D01*
X155362681Y-73260677D01*
X155429972Y-73252044D01*
X155549961Y-73227059D01*
X155578349Y-73219316D01*
X155681542Y-73187076D01*
X155739549Y-73172421D01*
X155758478Y-73176329D01*
X155771912Y-73187564D01*
X155779849Y-73207103D01*
X155782292Y-73236901D01*
X155780460Y-73253021D01*
X155776186Y-73267187D01*
X155768248Y-73279888D01*
X155754815Y-73291612D01*
X155701692Y-73314570D01*
X155585066Y-73347787D01*
X155463593Y-73370777D01*
X155417149Y-73377585D01*
X155292356Y-73389339D01*
X155211985Y-73391263D01*
X155082641Y-73385080D01*
X154955503Y-73364429D01*
X154892637Y-73347299D01*
X154779770Y-73300362D01*
X154683733Y-73237344D01*
X154659385Y-73216385D01*
X154585337Y-73132783D01*
X154532276Y-73040921D01*
X154515893Y-73001939D01*
X154486126Y-72900251D01*
X154470908Y-72797018D01*
X154467044Y-72705429D01*
X154472408Y-72609685D01*
X154686863Y-72609685D01*
X155630861Y-72609685D01*
X155625862Y-72505333D01*
X155601717Y-72402387D01*
X155551891Y-72305949D01*
X155517899Y-72264815D01*
X155423616Y-72194174D01*
X155303647Y-72152856D01*
X155172295Y-72140739D01*
X155049978Y-72153104D01*
X154967131Y-72179818D01*
X154867717Y-72238589D01*
X154818143Y-72283377D01*
X154752789Y-72371991D01*
X154724110Y-72432854D01*
X154696396Y-72530639D01*
X154686863Y-72609685D01*
X154472408Y-72609685D01*
X154473033Y-72598529D01*
X154490999Y-72499479D01*
X154517725Y-72416245D01*
X154566057Y-72318708D01*
X154628700Y-72234071D01*
X154662438Y-72199357D01*
X154752615Y-72129273D01*
X154857518Y-72075458D01*
X154890195Y-72063070D01*
X155012395Y-72030679D01*
X155136122Y-72016844D01*
X155186339Y-72015687D01*
X155310474Y-72022488D01*
G37*
G36*
X157166538Y-72108988D02*
G01*
X157164706Y-72138785D01*
X157158600Y-72160767D01*
X157148220Y-72174445D01*
X157132344Y-72178841D01*
X157095708Y-72172979D01*
X157048080Y-72159790D01*
X156987630Y-72147090D01*
X156915579Y-72140739D01*
X156824598Y-72158813D01*
X156730565Y-72216943D01*
X156650885Y-72295332D01*
X156627372Y-72322944D01*
X156563251Y-72406561D01*
X156508304Y-72484633D01*
X156508304Y-73324340D01*
X156502808Y-73339483D01*
X156486933Y-73350718D01*
X156455792Y-73357557D01*
X156405722Y-73360000D01*
X156356263Y-73357557D01*
X156324511Y-73350718D01*
X156308635Y-73339483D01*
X156304361Y-73324340D01*
X156304361Y-72082609D01*
X156308635Y-72067466D01*
X156324511Y-72055743D01*
X156355041Y-72048904D01*
X156402058Y-72046950D01*
X156450296Y-72048904D01*
X156479605Y-72055743D01*
X156494260Y-72067466D01*
X156498534Y-72082609D01*
X156498534Y-72278981D01*
X156570619Y-72195364D01*
X156621877Y-72144647D01*
X156710527Y-72076456D01*
X156729954Y-72065024D01*
X156830704Y-72025945D01*
X156931454Y-72015687D01*
X156982745Y-72017641D01*
X157045638Y-72023503D01*
X157105478Y-72034249D01*
X157142114Y-72045484D01*
X157156158Y-72054766D01*
X157162264Y-72065024D01*
X157165317Y-72081632D01*
X157166538Y-72108988D01*
G37*
D11*
G36*
X110952233Y-93725338D02*
G01*
X110910187Y-93804284D01*
X110872492Y-93883951D01*
X110839147Y-93964339D01*
X110810152Y-94045449D01*
X110785507Y-94127280D01*
X110778258Y-94154717D01*
X110759209Y-94237046D01*
X110744101Y-94319169D01*
X110732934Y-94401085D01*
X110725708Y-94482796D01*
X110722424Y-94564301D01*
X110722205Y-94591423D01*
X110724234Y-94673456D01*
X110730321Y-94755514D01*
X110740466Y-94837598D01*
X110754669Y-94919708D01*
X110772930Y-95001844D01*
X110779919Y-95029228D01*
X110803616Y-95111042D01*
X110831107Y-95192444D01*
X110862394Y-95273433D01*
X110897476Y-95354010D01*
X110936354Y-95434175D01*
X110950157Y-95460806D01*
X110955139Y-95476559D01*
X110950572Y-95487916D01*
X110933548Y-95494511D01*
X110901992Y-95496709D01*
X110877079Y-95495610D01*
X110857149Y-95492313D01*
X110842201Y-95486817D01*
X110833066Y-95478391D01*
X110791394Y-95407138D01*
X110753156Y-95334932D01*
X110721374Y-95268464D01*
X110690027Y-95194649D01*
X110662213Y-95119795D01*
X110639993Y-95050844D01*
X110619069Y-94974179D01*
X110601973Y-94896822D01*
X110589752Y-94825896D01*
X110580060Y-94747095D01*
X110574391Y-94667860D01*
X110572728Y-94595453D01*
X110574936Y-94515868D01*
X110581559Y-94436803D01*
X110591413Y-94365376D01*
X110606123Y-94287346D01*
X110624562Y-94209922D01*
X110644560Y-94140062D01*
X110669921Y-94063716D01*
X110698619Y-93988323D01*
X110727602Y-93920610D01*
X110762277Y-93846696D01*
X110799502Y-93773562D01*
X110835558Y-93707752D01*
X110840125Y-93701891D01*
X110850505Y-93696762D01*
X110869605Y-93692732D01*
X110901992Y-93691266D01*
X110930642Y-93693831D01*
X110948080Y-93700425D01*
X110955139Y-93711416D01*
X110952233Y-93725338D01*
G37*
G36*
X112154689Y-94775338D02*
G01*
X112147573Y-94853257D01*
X112126224Y-94924896D01*
X112122302Y-94933974D01*
X112082546Y-95001018D01*
X112027219Y-95058538D01*
X111956529Y-95105066D01*
X111875739Y-95138039D01*
X111869853Y-95139870D01*
X111788138Y-95158373D01*
X111704194Y-95167079D01*
X111651451Y-95168447D01*
X111565920Y-95164572D01*
X111511109Y-95157456D01*
X111428344Y-95140942D01*
X111395265Y-95132177D01*
X111317091Y-95104350D01*
X111310561Y-95101402D01*
X111268625Y-95079787D01*
X111256168Y-95068063D01*
X111249110Y-95054508D01*
X111244542Y-95035823D01*
X111242882Y-95008712D01*
X111250355Y-94968412D01*
X111271116Y-94957421D01*
X111313468Y-94976106D01*
X111387173Y-95012015D01*
X111396510Y-95016039D01*
X111474012Y-95044375D01*
X111514431Y-95056339D01*
X111599431Y-95071634D01*
X111663492Y-95074658D01*
X111746748Y-95068867D01*
X111810478Y-95054141D01*
X111884729Y-95020113D01*
X111916772Y-94996622D01*
X111967692Y-94936238D01*
X111981545Y-94908695D01*
X112001028Y-94833840D01*
X112003136Y-94796953D01*
X111992107Y-94721219D01*
X111974902Y-94680450D01*
X111927660Y-94618157D01*
X111894351Y-94590690D01*
X111819710Y-94550247D01*
X111766050Y-94532438D01*
X111680044Y-94516430D01*
X111595397Y-94511922D01*
X111445921Y-94511922D01*
X111431388Y-94509357D01*
X111417271Y-94500931D01*
X111406891Y-94486277D01*
X111402739Y-94463562D01*
X111406060Y-94443778D01*
X111415610Y-94429490D01*
X111428897Y-94421064D01*
X111445921Y-94418133D01*
X111577958Y-94418133D01*
X111664988Y-94411525D01*
X111725774Y-94397250D01*
X111800675Y-94363676D01*
X111838297Y-94336800D01*
X111890401Y-94278722D01*
X111910129Y-94243011D01*
X111931895Y-94169766D01*
X111935457Y-94121011D01*
X111925066Y-94046737D01*
X111918433Y-94027222D01*
X111878177Y-93960501D01*
X111868192Y-93949919D01*
X111799428Y-93904092D01*
X111783904Y-93897896D01*
X111702291Y-93880352D01*
X111665568Y-93878845D01*
X111581682Y-93886000D01*
X111536022Y-93897163D01*
X111459110Y-93925388D01*
X111432634Y-93937463D01*
X111360948Y-93976614D01*
X111359141Y-93977763D01*
X111318866Y-93996081D01*
X111305994Y-93994249D01*
X111296029Y-93986556D01*
X111290216Y-93970802D01*
X111288555Y-93944424D01*
X111289801Y-93926106D01*
X111294368Y-93911085D01*
X111302257Y-93898262D01*
X111317620Y-93883607D01*
X111360802Y-93857595D01*
X111437994Y-93825265D01*
X111440938Y-93824256D01*
X111523008Y-93801976D01*
X111548893Y-93796779D01*
X111632035Y-93786441D01*
X111678440Y-93785055D01*
X111764306Y-93789894D01*
X111849399Y-93807273D01*
X111859057Y-93810334D01*
X111936730Y-93844801D01*
X111985697Y-93879944D01*
X112036283Y-93938398D01*
X112060436Y-93985090D01*
X112080244Y-94056639D01*
X112084933Y-94116615D01*
X112078053Y-94191085D01*
X112065418Y-94238614D01*
X112032482Y-94307301D01*
X112008949Y-94338998D01*
X111949520Y-94392364D01*
X111917187Y-94412271D01*
X111839368Y-94442692D01*
X111793039Y-94452205D01*
X111793039Y-94454403D01*
X111877046Y-94467721D01*
X111937117Y-94487376D01*
X112009221Y-94524559D01*
X112051301Y-94556252D01*
X112103754Y-94614355D01*
X112127285Y-94654438D01*
X112150835Y-94727940D01*
X112154689Y-94775338D01*
G37*
G36*
X113158466Y-93789181D02*
G01*
X113161165Y-93789452D01*
X113240886Y-93800076D01*
X113302752Y-93814731D01*
X113335969Y-93827920D01*
X113347595Y-93838178D01*
X113353408Y-93848436D01*
X113357145Y-93860893D01*
X113358391Y-93877013D01*
X113357561Y-93897529D01*
X113354239Y-93912916D01*
X113345519Y-93922808D01*
X113330157Y-93926472D01*
X113295694Y-93919145D01*
X113242131Y-93902658D01*
X113164487Y-93886172D01*
X113079577Y-93879102D01*
X113056946Y-93878845D01*
X112973177Y-93885027D01*
X112892970Y-93905678D01*
X112854323Y-93922808D01*
X112785929Y-93967167D01*
X112728980Y-94023307D01*
X112714811Y-94041510D01*
X112672179Y-94111004D01*
X112642127Y-94183445D01*
X112633014Y-94213335D01*
X112616101Y-94287507D01*
X112605844Y-94363842D01*
X112602704Y-94415935D01*
X112675781Y-94382962D01*
X112754919Y-94356089D01*
X112763806Y-94353653D01*
X112845237Y-94335960D01*
X112865118Y-94332770D01*
X112949121Y-94324870D01*
X112978471Y-94324344D01*
X113068118Y-94328671D01*
X113151794Y-94343127D01*
X113191060Y-94355118D01*
X113267978Y-94391297D01*
X113327665Y-94439016D01*
X113373932Y-94500628D01*
X113400743Y-94563579D01*
X113416936Y-94637219D01*
X113422334Y-94715254D01*
X113416130Y-94792293D01*
X113397518Y-94868848D01*
X113394099Y-94879019D01*
X113360811Y-94951485D01*
X113313108Y-95016384D01*
X113305659Y-95024466D01*
X113245940Y-95075757D01*
X113172869Y-95118072D01*
X113149539Y-95128513D01*
X113065842Y-95154369D01*
X112977149Y-95166536D01*
X112920341Y-95168447D01*
X112836468Y-95163318D01*
X112762561Y-95147930D01*
X112686914Y-95117674D01*
X112641734Y-95089678D01*
X112583507Y-95035182D01*
X112554954Y-94995889D01*
X112519658Y-94927844D01*
X112497655Y-94868028D01*
X112478659Y-94792465D01*
X112466318Y-94715470D01*
X112465683Y-94710125D01*
X112458871Y-94632057D01*
X112455962Y-94554667D01*
X112455721Y-94524012D01*
X112605195Y-94524012D01*
X112606544Y-94598247D01*
X112611288Y-94674425D01*
X112620566Y-94749959D01*
X112626786Y-94784131D01*
X112645840Y-94857272D01*
X112675303Y-94928148D01*
X112690314Y-94953757D01*
X112743930Y-95014821D01*
X112794532Y-95046448D01*
X112876157Y-95070002D01*
X112940272Y-95074658D01*
X113025354Y-95065765D01*
X113089333Y-95043150D01*
X113156375Y-94999148D01*
X113193136Y-94961451D01*
X113235923Y-94894418D01*
X113253342Y-94850076D01*
X113269636Y-94777938D01*
X113272857Y-94729176D01*
X113267996Y-94654987D01*
X113257494Y-94602414D01*
X113226932Y-94531291D01*
X113206423Y-94504228D01*
X113142055Y-94454896D01*
X113110094Y-94440847D01*
X113028499Y-94421882D01*
X112961032Y-94418133D01*
X112877762Y-94424132D01*
X112862212Y-94426559D01*
X112781196Y-94444594D01*
X112766713Y-94448907D01*
X112689554Y-94477839D01*
X112679103Y-94482613D01*
X112607253Y-94522641D01*
X112605195Y-94524012D01*
X112455721Y-94524012D01*
X112455718Y-94523646D01*
X112457944Y-94445036D01*
X112463995Y-94371916D01*
X112467344Y-94343761D01*
X112480616Y-94266514D01*
X112500088Y-94192492D01*
X112506789Y-94171936D01*
X112534912Y-94102232D01*
X112572628Y-94032219D01*
X112581113Y-94018796D01*
X112629338Y-93956430D01*
X112687600Y-93902597D01*
X112696127Y-93896064D01*
X112766127Y-93852465D01*
X112841173Y-93820488D01*
X112858475Y-93814731D01*
X112939246Y-93795517D01*
X113022441Y-93786475D01*
X113074801Y-93785055D01*
X113158466Y-93789181D01*
G37*
G36*
X114232568Y-93790294D02*
G01*
X114318478Y-93807956D01*
X114375247Y-93829385D01*
X114446878Y-93872538D01*
X114506586Y-93929961D01*
X114530122Y-93961277D01*
X114569982Y-94032546D01*
X114598314Y-94108195D01*
X114615655Y-94177431D01*
X114628501Y-94252924D01*
X114637143Y-94334735D01*
X114641295Y-94412759D01*
X114642229Y-94474553D01*
X114640542Y-94549016D01*
X114634612Y-94629066D01*
X114624412Y-94705173D01*
X114615240Y-94753722D01*
X114595104Y-94829779D01*
X114567912Y-94899037D01*
X114529853Y-94967370D01*
X114525969Y-94973175D01*
X114473769Y-95036699D01*
X114410592Y-95088785D01*
X114362376Y-95117156D01*
X114280047Y-95148411D01*
X114192884Y-95164390D01*
X114113248Y-95168447D01*
X114024238Y-95163209D01*
X113938328Y-95145546D01*
X113881559Y-95124117D01*
X113810265Y-95081024D01*
X113750895Y-95023783D01*
X113727515Y-94992592D01*
X113687849Y-94921151D01*
X113659491Y-94845525D01*
X113641981Y-94776437D01*
X113629336Y-94700767D01*
X113620830Y-94618837D01*
X113616743Y-94540756D01*
X113615823Y-94478949D01*
X113616086Y-94467226D01*
X113765300Y-94467226D01*
X113766545Y-94543498D01*
X113770924Y-94622900D01*
X113779488Y-94703171D01*
X113785230Y-94740167D01*
X113801679Y-94814242D01*
X113828204Y-94889506D01*
X113848342Y-94929211D01*
X113897649Y-94993691D01*
X113959204Y-95039120D01*
X114039317Y-95066849D01*
X114123628Y-95074658D01*
X114208312Y-95066779D01*
X114258157Y-95052309D01*
X114329094Y-95012922D01*
X114356147Y-94989295D01*
X114405621Y-94926452D01*
X114423827Y-94893307D01*
X114451631Y-94823820D01*
X114465764Y-94772407D01*
X114480025Y-94696724D01*
X114486939Y-94634654D01*
X114491299Y-94561290D01*
X114492752Y-94486277D01*
X114491526Y-94409924D01*
X114487431Y-94333488D01*
X114484033Y-94295034D01*
X114473669Y-94218425D01*
X114457787Y-94145759D01*
X114456629Y-94141528D01*
X114432456Y-94071370D01*
X114409295Y-94024658D01*
X114362105Y-93962118D01*
X114340369Y-93942592D01*
X114270596Y-93902154D01*
X114248607Y-93894598D01*
X114164527Y-93879829D01*
X114133178Y-93878845D01*
X114046318Y-93887068D01*
X113969024Y-93914316D01*
X113945502Y-93928670D01*
X113885300Y-93982283D01*
X113841294Y-94045395D01*
X113833394Y-94060561D01*
X113804988Y-94131170D01*
X113786430Y-94203323D01*
X113779002Y-94248506D01*
X113771201Y-94321955D01*
X113766638Y-94397223D01*
X113765300Y-94467226D01*
X113616086Y-94467226D01*
X113617484Y-94404783D01*
X113623323Y-94324905D01*
X113633366Y-94248794D01*
X113642397Y-94200146D01*
X113662671Y-94123932D01*
X113689757Y-94054659D01*
X113727420Y-93986476D01*
X113731252Y-93980694D01*
X113783141Y-93917170D01*
X113846007Y-93865083D01*
X113894016Y-93836713D01*
X113976597Y-93805234D01*
X114063890Y-93789142D01*
X114143558Y-93785055D01*
X114232568Y-93790294D01*
G37*
G36*
X115268785Y-94595453D02*
G01*
X115266774Y-94675081D01*
X115260739Y-94754276D01*
X115251762Y-94825896D01*
X115238144Y-94903883D01*
X115220700Y-94981177D01*
X115201521Y-95050844D01*
X115176967Y-95126643D01*
X115148979Y-95201402D01*
X115120554Y-95268464D01*
X115085911Y-95341536D01*
X115047637Y-95413655D01*
X115009692Y-95478391D01*
X115000143Y-95486817D01*
X114985610Y-95492313D01*
X114965680Y-95495610D01*
X114940767Y-95496709D01*
X114907965Y-95494511D01*
X114890942Y-95487916D01*
X114886789Y-95476559D01*
X114893018Y-95460806D01*
X114933540Y-95381486D01*
X114970092Y-95301523D01*
X115002673Y-95220916D01*
X115031284Y-95139664D01*
X115055924Y-95057769D01*
X115063255Y-95030327D01*
X115082728Y-94947810D01*
X115098172Y-94865395D01*
X115109587Y-94783083D01*
X115116973Y-94700874D01*
X115120330Y-94618769D01*
X115120554Y-94591423D01*
X115118554Y-94509987D01*
X115112555Y-94428345D01*
X115102556Y-94346497D01*
X115088557Y-94264443D01*
X115070558Y-94182183D01*
X115063670Y-94154717D01*
X115040378Y-94072646D01*
X115012852Y-93991296D01*
X114981093Y-93910667D01*
X114945101Y-93830759D01*
X114904876Y-93751573D01*
X114890526Y-93725338D01*
X114887620Y-93711416D01*
X114894263Y-93700425D01*
X114912117Y-93693831D01*
X114940767Y-93691266D01*
X114971493Y-93692732D01*
X114991423Y-93696762D01*
X115001803Y-93701891D01*
X115007201Y-93707752D01*
X115050195Y-93786454D01*
X115089803Y-93866211D01*
X115126023Y-93947024D01*
X115158858Y-94028894D01*
X115188305Y-94111819D01*
X115197369Y-94139696D01*
X115221639Y-94223811D01*
X115240888Y-94308544D01*
X115255116Y-94393896D01*
X115264322Y-94479865D01*
X115268506Y-94566453D01*
X115268785Y-94595453D01*
G37*
G36*
X117031779Y-94726612D02*
G01*
X117026174Y-94802724D01*
X117007450Y-94877737D01*
X116991919Y-94914923D01*
X116951046Y-94981821D01*
X116897458Y-95038903D01*
X116879811Y-95053408D01*
X116811111Y-95097587D01*
X116731444Y-95131387D01*
X116706667Y-95139138D01*
X116621262Y-95158114D01*
X116536345Y-95167044D01*
X116484113Y-95168447D01*
X116399157Y-95164153D01*
X116350830Y-95157456D01*
X116267567Y-95140290D01*
X116238722Y-95132543D01*
X116160550Y-95104860D01*
X116158586Y-95103967D01*
X116119556Y-95082351D01*
X116108761Y-95070628D01*
X116103363Y-95061102D01*
X116100041Y-95047180D01*
X116098796Y-95027397D01*
X116100457Y-95007979D01*
X116106270Y-94993325D01*
X116116235Y-94984166D01*
X116129106Y-94980868D01*
X116165645Y-94995523D01*
X116234155Y-95027763D01*
X116314045Y-95053451D01*
X116340865Y-95060003D01*
X116425140Y-95072239D01*
X116492418Y-95074658D01*
X116576928Y-95069384D01*
X116646046Y-95055973D01*
X116724266Y-95025730D01*
X116770195Y-94996256D01*
X116824617Y-94940215D01*
X116852407Y-94892941D01*
X116875734Y-94818647D01*
X116882302Y-94740900D01*
X116875037Y-94666478D01*
X116856559Y-94609741D01*
X116813838Y-94546658D01*
X116778084Y-94515952D01*
X116706150Y-94477986D01*
X116645631Y-94459898D01*
X116558955Y-94446160D01*
X116471704Y-94441652D01*
X116458370Y-94441580D01*
X116372104Y-94444578D01*
X116335052Y-94448541D01*
X116251634Y-94455078D01*
X116243705Y-94455136D01*
X116198862Y-94442313D01*
X116185160Y-94392121D01*
X116185160Y-93869319D01*
X116203014Y-93824623D01*
X116251594Y-93808503D01*
X116895174Y-93808503D01*
X116912613Y-93811434D01*
X116926730Y-93820593D01*
X116935450Y-93835247D01*
X116938356Y-93855031D01*
X116927145Y-93888736D01*
X116895174Y-93902292D01*
X116316782Y-93902292D01*
X116316782Y-94354752D01*
X116401486Y-94348890D01*
X116484793Y-94347829D01*
X116507365Y-94347791D01*
X116594689Y-94351124D01*
X116680774Y-94362364D01*
X116739054Y-94376001D01*
X116819005Y-94404962D01*
X116890204Y-94445486D01*
X116902648Y-94454769D01*
X116959221Y-94509907D01*
X116999392Y-94574937D01*
X117023682Y-94647660D01*
X117031747Y-94721495D01*
X117031779Y-94726612D01*
G37*
G36*
X117883099Y-93789167D02*
G01*
X117967630Y-93804129D01*
X117988014Y-93809968D01*
X118065307Y-93841401D01*
X118120467Y-93877379D01*
X118175840Y-93935940D01*
X118198942Y-93976297D01*
X118221065Y-94048511D01*
X118224685Y-94093900D01*
X118215566Y-94166870D01*
X118203510Y-94203077D01*
X118165936Y-94271005D01*
X118142889Y-94300163D01*
X118086089Y-94354803D01*
X118045314Y-94385526D01*
X117974998Y-94428649D01*
X117912861Y-94460265D01*
X117987442Y-94493424D01*
X118063140Y-94531663D01*
X118071887Y-94536468D01*
X118143005Y-94581368D01*
X118188147Y-94618534D01*
X118239714Y-94677799D01*
X118258733Y-94710858D01*
X118280463Y-94783209D01*
X118282815Y-94819302D01*
X118275243Y-94894032D01*
X118250473Y-94964340D01*
X118248353Y-94968412D01*
X118203182Y-95031624D01*
X118149117Y-95077955D01*
X118077181Y-95116973D01*
X117996732Y-95143903D01*
X117990921Y-95145366D01*
X117904248Y-95161144D01*
X117814943Y-95167883D01*
X117778332Y-95168447D01*
X117691683Y-95164940D01*
X117606032Y-95153319D01*
X117577369Y-95147198D01*
X117494222Y-95121277D01*
X117424155Y-95085282D01*
X117361883Y-95033208D01*
X117326165Y-94984532D01*
X117298299Y-94911258D01*
X117291702Y-94846413D01*
X117293184Y-94834323D01*
X117441179Y-94834323D01*
X117453557Y-94912444D01*
X117494905Y-94981146D01*
X117529204Y-95011277D01*
X117607309Y-95049899D01*
X117690863Y-95068468D01*
X117780414Y-95074596D01*
X117791203Y-95074658D01*
X117879357Y-95069644D01*
X117962204Y-95052313D01*
X118040641Y-95015176D01*
X118046144Y-95011277D01*
X118102599Y-94952342D01*
X118130273Y-94878534D01*
X118133339Y-94839452D01*
X118120727Y-94764095D01*
X118110917Y-94741632D01*
X118065062Y-94679534D01*
X118044068Y-94660300D01*
X117979094Y-94613989D01*
X117931545Y-94587027D01*
X117858260Y-94550299D01*
X117779374Y-94514369D01*
X117773764Y-94511922D01*
X117699695Y-94546553D01*
X117626779Y-94584829D01*
X117559591Y-94628062D01*
X117522561Y-94658834D01*
X117472969Y-94718666D01*
X117461524Y-94739801D01*
X117442152Y-94812018D01*
X117441179Y-94834323D01*
X117293184Y-94834323D01*
X117300778Y-94772364D01*
X117317445Y-94726612D01*
X117360532Y-94659713D01*
X117390523Y-94627693D01*
X117454051Y-94576506D01*
X117505952Y-94544162D01*
X117578614Y-94506335D01*
X117654277Y-94472037D01*
X117659581Y-94469790D01*
X117583887Y-94432737D01*
X117525467Y-94397983D01*
X117460622Y-94348352D01*
X117428722Y-94316650D01*
X117384084Y-94254106D01*
X117369762Y-94223960D01*
X117351409Y-94149455D01*
X117349832Y-94118447D01*
X117351268Y-94105990D01*
X117497233Y-94105990D01*
X117509019Y-94179627D01*
X117515087Y-94195383D01*
X117556835Y-94259643D01*
X117569895Y-94273785D01*
X117633098Y-94326368D01*
X117663318Y-94346325D01*
X117734013Y-94386356D01*
X117798262Y-94418133D01*
X117876041Y-94377632D01*
X117947642Y-94329445D01*
X118004623Y-94277449D01*
X118051669Y-94210789D01*
X118074730Y-94138809D01*
X118077285Y-94103792D01*
X118065374Y-94029464D01*
X118057770Y-94010736D01*
X118012533Y-93949124D01*
X118001301Y-93939661D01*
X117929338Y-93900871D01*
X117909539Y-93894598D01*
X117824224Y-93880091D01*
X117786636Y-93878845D01*
X117697479Y-93886031D01*
X117618235Y-93910262D01*
X117571140Y-93939661D01*
X117520617Y-94001431D01*
X117499037Y-94074109D01*
X117497233Y-94105990D01*
X117351268Y-94105990D01*
X117358240Y-94045520D01*
X117376406Y-93991685D01*
X117418262Y-93924937D01*
X117458203Y-93885073D01*
X117525315Y-93841506D01*
X117598545Y-93812166D01*
X117679109Y-93793633D01*
X117764166Y-93785717D01*
X117799508Y-93785055D01*
X117883099Y-93789167D01*
G37*
G36*
X119222442Y-93810701D02*
G01*
X119257320Y-93816196D01*
X119278911Y-93826088D01*
X119286800Y-93839644D01*
X119286800Y-94722948D01*
X119478213Y-94722948D01*
X119509769Y-94734672D01*
X119521395Y-94769842D01*
X119510184Y-94803914D01*
X119478213Y-94816737D01*
X119286800Y-94816737D01*
X119286800Y-95118255D01*
X119283063Y-95129612D01*
X119271437Y-95138039D01*
X119249846Y-95143168D01*
X119215383Y-95145000D01*
X119182166Y-95143168D01*
X119160575Y-95138039D01*
X119149364Y-95129612D01*
X119146458Y-95118255D01*
X119146458Y-94816737D01*
X118497480Y-94816737D01*
X118478381Y-94814539D01*
X118463848Y-94806479D01*
X118454713Y-94791824D01*
X118451807Y-94768377D01*
X118453053Y-94747494D01*
X118457205Y-94729542D01*
X118460432Y-94722948D01*
X118601284Y-94722948D01*
X119146458Y-94722948D01*
X119146458Y-93920976D01*
X119143967Y-93920976D01*
X118601284Y-94722948D01*
X118460432Y-94722948D01*
X118465094Y-94713422D01*
X118477550Y-94696203D01*
X119062585Y-93837445D01*
X119077117Y-93824623D01*
X119099124Y-93815097D01*
X119131510Y-93809968D01*
X119174692Y-93808503D01*
X119222442Y-93810701D01*
G37*
G36*
X120239298Y-94629159D02*
G01*
X120229748Y-94666161D01*
X120205251Y-94676053D01*
X119715715Y-94676053D01*
X119690802Y-94665795D01*
X119680837Y-94629159D01*
X119690802Y-94592522D01*
X119715715Y-94582264D01*
X120205251Y-94582264D01*
X120218538Y-94584829D01*
X120229748Y-94592889D01*
X120236807Y-94607177D01*
X120239298Y-94629159D01*
G37*
G36*
X121365771Y-94775338D02*
G01*
X121358654Y-94853257D01*
X121337306Y-94924896D01*
X121333384Y-94933974D01*
X121293627Y-95001018D01*
X121238300Y-95058538D01*
X121167610Y-95105066D01*
X121086820Y-95138039D01*
X121080935Y-95139870D01*
X120999220Y-95158373D01*
X120915275Y-95167079D01*
X120862533Y-95168447D01*
X120777001Y-95164572D01*
X120722191Y-95157456D01*
X120639425Y-95140942D01*
X120606346Y-95132177D01*
X120528173Y-95104350D01*
X120521643Y-95101402D01*
X120479706Y-95079787D01*
X120467250Y-95068063D01*
X120460191Y-95054508D01*
X120455624Y-95035823D01*
X120453963Y-95008712D01*
X120461437Y-94968412D01*
X120482198Y-94957421D01*
X120524549Y-94976106D01*
X120598255Y-95012015D01*
X120607592Y-95016039D01*
X120685094Y-95044375D01*
X120725512Y-95056339D01*
X120810512Y-95071634D01*
X120874574Y-95074658D01*
X120957830Y-95068867D01*
X121021559Y-95054141D01*
X121095811Y-95020113D01*
X121127854Y-94996622D01*
X121178774Y-94936238D01*
X121192627Y-94908695D01*
X121212109Y-94833840D01*
X121214218Y-94796953D01*
X121203189Y-94721219D01*
X121185983Y-94680450D01*
X121138742Y-94618157D01*
X121105432Y-94590690D01*
X121030791Y-94550247D01*
X120977131Y-94532438D01*
X120891125Y-94516430D01*
X120806479Y-94511922D01*
X120657002Y-94511922D01*
X120642470Y-94509357D01*
X120628353Y-94500931D01*
X120617972Y-94486277D01*
X120613820Y-94463562D01*
X120617142Y-94443778D01*
X120626692Y-94429490D01*
X120639979Y-94421064D01*
X120657002Y-94418133D01*
X120789040Y-94418133D01*
X120876069Y-94411525D01*
X120936856Y-94397250D01*
X121011756Y-94363676D01*
X121049378Y-94336800D01*
X121101482Y-94278722D01*
X121121210Y-94243011D01*
X121142976Y-94169766D01*
X121146538Y-94121011D01*
X121136148Y-94046737D01*
X121129515Y-94027222D01*
X121089259Y-93960501D01*
X121079274Y-93949919D01*
X121010509Y-93904092D01*
X120994986Y-93897896D01*
X120913373Y-93880352D01*
X120876650Y-93878845D01*
X120792764Y-93886000D01*
X120747103Y-93897163D01*
X120670191Y-93925388D01*
X120643715Y-93937463D01*
X120572029Y-93976614D01*
X120570223Y-93977763D01*
X120529947Y-93996081D01*
X120517076Y-93994249D01*
X120507110Y-93986556D01*
X120501297Y-93970802D01*
X120499637Y-93944424D01*
X120500882Y-93926106D01*
X120505450Y-93911085D01*
X120513339Y-93898262D01*
X120528702Y-93883607D01*
X120571884Y-93857595D01*
X120649076Y-93825265D01*
X120652020Y-93824256D01*
X120734089Y-93801976D01*
X120759975Y-93796779D01*
X120843117Y-93786441D01*
X120889521Y-93785055D01*
X120975388Y-93789894D01*
X121060481Y-93807273D01*
X121070139Y-93810334D01*
X121147811Y-93844801D01*
X121196779Y-93879944D01*
X121247364Y-93938398D01*
X121271517Y-93985090D01*
X121291326Y-94056639D01*
X121296015Y-94116615D01*
X121289135Y-94191085D01*
X121276500Y-94238614D01*
X121243563Y-94307301D01*
X121220031Y-94338998D01*
X121160602Y-94392364D01*
X121128269Y-94412271D01*
X121050449Y-94442692D01*
X121004120Y-94452205D01*
X121004120Y-94454403D01*
X121088128Y-94467721D01*
X121148199Y-94487376D01*
X121220302Y-94524559D01*
X121262383Y-94556252D01*
X121314836Y-94614355D01*
X121338367Y-94654438D01*
X121361917Y-94727940D01*
X121365771Y-94775338D01*
G37*
G36*
X122212078Y-93790459D02*
G01*
X122286297Y-93806671D01*
X122362784Y-93838362D01*
X122408370Y-93867487D01*
X122468284Y-93923673D01*
X122498471Y-93963841D01*
X122535782Y-94032479D01*
X122558262Y-94092435D01*
X122577984Y-94167540D01*
X122590818Y-94243939D01*
X122591479Y-94249239D01*
X122598859Y-94325254D01*
X122602011Y-94399355D01*
X122602274Y-94428757D01*
X122599811Y-94507367D01*
X122593111Y-94580487D01*
X122589403Y-94608642D01*
X122574961Y-94686030D01*
X122554162Y-94760472D01*
X122547051Y-94781200D01*
X122518043Y-94850903D01*
X122479026Y-94920917D01*
X122470237Y-94934340D01*
X122420363Y-94996524D01*
X122360270Y-95050496D01*
X122351486Y-95057072D01*
X122279746Y-95100934D01*
X122202747Y-95133011D01*
X122184986Y-95138771D01*
X122102733Y-95157985D01*
X122018535Y-95167027D01*
X121965753Y-95168447D01*
X121882713Y-95164795D01*
X121868178Y-95163318D01*
X121785551Y-95151594D01*
X121725345Y-95137306D01*
X121690882Y-95122651D01*
X121675104Y-95103600D01*
X121670122Y-95072826D01*
X121671367Y-95047913D01*
X121675935Y-95033258D01*
X121684654Y-95025565D01*
X121698356Y-95023367D01*
X121732404Y-95031793D01*
X121790118Y-95049012D01*
X121873161Y-95066598D01*
X121956021Y-95074272D01*
X121981946Y-95074658D01*
X122068966Y-95068218D01*
X122152299Y-95046706D01*
X122192459Y-95028862D01*
X122263725Y-94982900D01*
X122322752Y-94925158D01*
X122337369Y-94906496D01*
X122378927Y-94839934D01*
X122409017Y-94771301D01*
X122422903Y-94728077D01*
X122440828Y-94651295D01*
X122451630Y-94573174D01*
X122454874Y-94520348D01*
X122376905Y-94553521D01*
X122295847Y-94579699D01*
X122209867Y-94597481D01*
X122120493Y-94605076D01*
X122083674Y-94605711D01*
X121999664Y-94602032D01*
X121913410Y-94588195D01*
X121867348Y-94574570D01*
X121789599Y-94537751D01*
X121729082Y-94490307D01*
X121682491Y-94429004D01*
X121655589Y-94366842D01*
X121639396Y-94294302D01*
X121633998Y-94217365D01*
X121634928Y-94205275D01*
X121783475Y-94205275D01*
X121789183Y-94281274D01*
X121799668Y-94329106D01*
X121832317Y-94399395D01*
X121853646Y-94426193D01*
X121919376Y-94475039D01*
X121951636Y-94489207D01*
X122033577Y-94508173D01*
X122101113Y-94511922D01*
X122186752Y-94506873D01*
X122270007Y-94491726D01*
X122293356Y-94485544D01*
X122374712Y-94456848D01*
X122448620Y-94418254D01*
X122452798Y-94415568D01*
X122450991Y-94336112D01*
X122444747Y-94256256D01*
X122432727Y-94178662D01*
X122429961Y-94165708D01*
X122409856Y-94094456D01*
X122378872Y-94025002D01*
X122363112Y-93999745D01*
X122310930Y-93941939D01*
X122255157Y-93907421D01*
X122172491Y-93883561D01*
X122108171Y-93878845D01*
X122022468Y-93887116D01*
X121959110Y-93908154D01*
X121891248Y-93951488D01*
X121858628Y-93984357D01*
X121816342Y-94051121D01*
X121801329Y-94089870D01*
X121785985Y-94162256D01*
X121783475Y-94205275D01*
X121634928Y-94205275D01*
X121639837Y-94141475D01*
X121657354Y-94067678D01*
X121660572Y-94057997D01*
X121692899Y-93988965D01*
X121739276Y-93927501D01*
X121746521Y-93919877D01*
X121809758Y-93868094D01*
X121882443Y-93829205D01*
X121899734Y-93822058D01*
X121982693Y-93798100D01*
X122071192Y-93786826D01*
X122128101Y-93785055D01*
X122212078Y-93790459D01*
G37*
G36*
X123777327Y-94775338D02*
G01*
X123770211Y-94853257D01*
X123748862Y-94924896D01*
X123744940Y-94933974D01*
X123705184Y-95001018D01*
X123649856Y-95058538D01*
X123579166Y-95105066D01*
X123498376Y-95138039D01*
X123492491Y-95139870D01*
X123410776Y-95158373D01*
X123326831Y-95167079D01*
X123274089Y-95168447D01*
X123188557Y-95164572D01*
X123133747Y-95157456D01*
X123050982Y-95140942D01*
X123017903Y-95132177D01*
X122939729Y-95104350D01*
X122933199Y-95101402D01*
X122891263Y-95079787D01*
X122878806Y-95068063D01*
X122871748Y-95054508D01*
X122867180Y-95035823D01*
X122865519Y-95008712D01*
X122872993Y-94968412D01*
X122893754Y-94957421D01*
X122936106Y-94976106D01*
X123009811Y-95012015D01*
X123019148Y-95016039D01*
X123096650Y-95044375D01*
X123137069Y-95056339D01*
X123222068Y-95071634D01*
X123286130Y-95074658D01*
X123369386Y-95068867D01*
X123433115Y-95054141D01*
X123507367Y-95020113D01*
X123539410Y-94996622D01*
X123590330Y-94936238D01*
X123604183Y-94908695D01*
X123623666Y-94833840D01*
X123625774Y-94796953D01*
X123614745Y-94721219D01*
X123597540Y-94680450D01*
X123550298Y-94618157D01*
X123516988Y-94590690D01*
X123442347Y-94550247D01*
X123388688Y-94532438D01*
X123302681Y-94516430D01*
X123218035Y-94511922D01*
X123068558Y-94511922D01*
X123054026Y-94509357D01*
X123039909Y-94500931D01*
X123029528Y-94486277D01*
X123025376Y-94463562D01*
X123028698Y-94443778D01*
X123038248Y-94429490D01*
X123051535Y-94421064D01*
X123068558Y-94418133D01*
X123200596Y-94418133D01*
X123287625Y-94411525D01*
X123348412Y-94397250D01*
X123423312Y-94363676D01*
X123460935Y-94336800D01*
X123513039Y-94278722D01*
X123532766Y-94243011D01*
X123554533Y-94169766D01*
X123558094Y-94121011D01*
X123547704Y-94046737D01*
X123541071Y-94027222D01*
X123500815Y-93960501D01*
X123490830Y-93949919D01*
X123422066Y-93904092D01*
X123406542Y-93897896D01*
X123324929Y-93880352D01*
X123288206Y-93878845D01*
X123204320Y-93886000D01*
X123158660Y-93897163D01*
X123081748Y-93925388D01*
X123055272Y-93937463D01*
X122983585Y-93976614D01*
X122981779Y-93977763D01*
X122941503Y-93996081D01*
X122928632Y-93994249D01*
X122918667Y-93986556D01*
X122912854Y-93970802D01*
X122911193Y-93944424D01*
X122912438Y-93926106D01*
X122917006Y-93911085D01*
X122924895Y-93898262D01*
X122940258Y-93883607D01*
X122983440Y-93857595D01*
X123060632Y-93825265D01*
X123063576Y-93824256D01*
X123145645Y-93801976D01*
X123171531Y-93796779D01*
X123254673Y-93786441D01*
X123301078Y-93785055D01*
X123386944Y-93789894D01*
X123472037Y-93807273D01*
X123481695Y-93810334D01*
X123559368Y-93844801D01*
X123608335Y-93879944D01*
X123658921Y-93938398D01*
X123683073Y-93985090D01*
X123702882Y-94056639D01*
X123707571Y-94116615D01*
X123700691Y-94191085D01*
X123688056Y-94238614D01*
X123655120Y-94307301D01*
X123631587Y-94338998D01*
X123572158Y-94392364D01*
X123539825Y-94412271D01*
X123462005Y-94442692D01*
X123415676Y-94452205D01*
X123415676Y-94454403D01*
X123499684Y-94467721D01*
X123559755Y-94487376D01*
X123631858Y-94524559D01*
X123673939Y-94556252D01*
X123726392Y-94614355D01*
X123749923Y-94654438D01*
X123773473Y-94727940D01*
X123777327Y-94775338D01*
G37*
G36*
X124639442Y-93789167D02*
G01*
X124723973Y-93804129D01*
X124744357Y-93809968D01*
X124821651Y-93841401D01*
X124876810Y-93877379D01*
X124932183Y-93935940D01*
X124955286Y-93976297D01*
X124977409Y-94048511D01*
X124981029Y-94093900D01*
X124971909Y-94166870D01*
X124959853Y-94203077D01*
X124922279Y-94271005D01*
X124899232Y-94300163D01*
X124842432Y-94354803D01*
X124801657Y-94385526D01*
X124731342Y-94428649D01*
X124669204Y-94460265D01*
X124743785Y-94493424D01*
X124819483Y-94531663D01*
X124828230Y-94536468D01*
X124899349Y-94581368D01*
X124944490Y-94618534D01*
X124996058Y-94677799D01*
X125015076Y-94710858D01*
X125036807Y-94783209D01*
X125039159Y-94819302D01*
X125031586Y-94894032D01*
X125006816Y-94964340D01*
X125004696Y-94968412D01*
X124959525Y-95031624D01*
X124905460Y-95077955D01*
X124833524Y-95116973D01*
X124753075Y-95143903D01*
X124747264Y-95145366D01*
X124660592Y-95161144D01*
X124571286Y-95167883D01*
X124534675Y-95168447D01*
X124448026Y-95164940D01*
X124362375Y-95153319D01*
X124333712Y-95147198D01*
X124250566Y-95121277D01*
X124180498Y-95085282D01*
X124118226Y-95033208D01*
X124082508Y-94984532D01*
X124054642Y-94911258D01*
X124048046Y-94846413D01*
X124049528Y-94834323D01*
X124197522Y-94834323D01*
X124209901Y-94912444D01*
X124251248Y-94981146D01*
X124285547Y-95011277D01*
X124363653Y-95049899D01*
X124447206Y-95068468D01*
X124536757Y-95074596D01*
X124547547Y-95074658D01*
X124635700Y-95069644D01*
X124718548Y-95052313D01*
X124796984Y-95015176D01*
X124802487Y-95011277D01*
X124858942Y-94952342D01*
X124886617Y-94878534D01*
X124889682Y-94839452D01*
X124877070Y-94764095D01*
X124867260Y-94741632D01*
X124821405Y-94679534D01*
X124800411Y-94660300D01*
X124735437Y-94613989D01*
X124687889Y-94587027D01*
X124614603Y-94550299D01*
X124535717Y-94514369D01*
X124530108Y-94511922D01*
X124456038Y-94546553D01*
X124383122Y-94584829D01*
X124315934Y-94628062D01*
X124278904Y-94658834D01*
X124229312Y-94718666D01*
X124217868Y-94739801D01*
X124198496Y-94812018D01*
X124197522Y-94834323D01*
X124049528Y-94834323D01*
X124057121Y-94772364D01*
X124073789Y-94726612D01*
X124116875Y-94659713D01*
X124146866Y-94627693D01*
X124210395Y-94576506D01*
X124262295Y-94544162D01*
X124334958Y-94506335D01*
X124410620Y-94472037D01*
X124415924Y-94469790D01*
X124340230Y-94432737D01*
X124281810Y-94397983D01*
X124216966Y-94348352D01*
X124185066Y-94316650D01*
X124140427Y-94254106D01*
X124126106Y-94223960D01*
X124107752Y-94149455D01*
X124106175Y-94118447D01*
X124107611Y-94105990D01*
X124253576Y-94105990D01*
X124265362Y-94179627D01*
X124271430Y-94195383D01*
X124313178Y-94259643D01*
X124326238Y-94273785D01*
X124389441Y-94326368D01*
X124419661Y-94346325D01*
X124490356Y-94386356D01*
X124554605Y-94418133D01*
X124632385Y-94377632D01*
X124703986Y-94329445D01*
X124760966Y-94277449D01*
X124808012Y-94210789D01*
X124831074Y-94138809D01*
X124833628Y-94103792D01*
X124821717Y-94029464D01*
X124814113Y-94010736D01*
X124768876Y-93949124D01*
X124757644Y-93939661D01*
X124685681Y-93900871D01*
X124665882Y-93894598D01*
X124580567Y-93880091D01*
X124542979Y-93878845D01*
X124453822Y-93886031D01*
X124374578Y-93910262D01*
X124327484Y-93939661D01*
X124276961Y-94001431D01*
X124255380Y-94074109D01*
X124253576Y-94105990D01*
X124107611Y-94105990D01*
X124114583Y-94045520D01*
X124132749Y-93991685D01*
X124174606Y-93924937D01*
X124214546Y-93885073D01*
X124281658Y-93841506D01*
X124354888Y-93812166D01*
X124435452Y-93793633D01*
X124520509Y-93785717D01*
X124555851Y-93785055D01*
X124639442Y-93789167D01*
G37*
D12*
X173825000Y-93935000D02*
X173375000Y-93935000D01*
X173375000Y-93665000D01*
X173825000Y-93665000D01*
X173825000Y-93935000D01*
G36*
X173825000Y-93935000D02*
G01*
X173375000Y-93935000D01*
X173375000Y-93665000D01*
X173825000Y-93665000D01*
X173825000Y-93935000D01*
G37*
X173835000Y-93425000D02*
X173565000Y-93425000D01*
X173565000Y-92975000D01*
X173835000Y-92975000D01*
X173835000Y-93425000D01*
G36*
X173835000Y-93425000D02*
G01*
X173565000Y-93425000D01*
X173565000Y-92975000D01*
X173835000Y-92975000D01*
X173835000Y-93425000D01*
G37*
X173835000Y-94625000D02*
X173565000Y-94625000D01*
X173565000Y-94175000D01*
X173835000Y-94175000D01*
X173835000Y-94625000D01*
G36*
X173835000Y-94625000D02*
G01*
X173565000Y-94625000D01*
X173565000Y-94175000D01*
X173835000Y-94175000D01*
X173835000Y-94625000D01*
G37*
X174335000Y-93425000D02*
X174065000Y-93425000D01*
X174065000Y-92975000D01*
X174335000Y-92975000D01*
X174335000Y-93425000D01*
G36*
X174335000Y-93425000D02*
G01*
X174065000Y-93425000D01*
X174065000Y-92975000D01*
X174335000Y-92975000D01*
X174335000Y-93425000D01*
G37*
X174335000Y-94625000D02*
X174065000Y-94625000D01*
X174065000Y-94175000D01*
X174335000Y-94175000D01*
X174335000Y-94625000D01*
G36*
X174335000Y-94625000D02*
G01*
X174065000Y-94625000D01*
X174065000Y-94175000D01*
X174335000Y-94175000D01*
X174335000Y-94625000D01*
G37*
X174835000Y-93425000D02*
X174565000Y-93425000D01*
X174565000Y-92975000D01*
X174835000Y-92975000D01*
X174835000Y-93425000D01*
G36*
X174835000Y-93425000D02*
G01*
X174565000Y-93425000D01*
X174565000Y-92975000D01*
X174835000Y-92975000D01*
X174835000Y-93425000D01*
G37*
X174835000Y-94625000D02*
X174565000Y-94625000D01*
X174565000Y-94175000D01*
X174835000Y-94175000D01*
X174835000Y-94625000D01*
G36*
X174835000Y-94625000D02*
G01*
X174565000Y-94625000D01*
X174565000Y-94175000D01*
X174835000Y-94175000D01*
X174835000Y-94625000D01*
G37*
X175025000Y-93935000D02*
X174575000Y-93935000D01*
X174575000Y-93665000D01*
X175025000Y-93665000D01*
X175025000Y-93935000D01*
G36*
X175025000Y-93935000D02*
G01*
X174575000Y-93935000D01*
X174575000Y-93665000D01*
X175025000Y-93665000D01*
X175025000Y-93935000D01*
G37*
X168050000Y-94850000D02*
X167350000Y-94850000D01*
X167350000Y-94250000D01*
X168050000Y-94250000D01*
X168050000Y-94850000D01*
G36*
X168050000Y-94850000D02*
G01*
X167350000Y-94850000D01*
X167350000Y-94250000D01*
X168050000Y-94250000D01*
X168050000Y-94850000D01*
G37*
X170050000Y-93900000D02*
X169350000Y-93900000D01*
X169350000Y-93300000D01*
X170050000Y-93300000D01*
X170050000Y-93900000D01*
G36*
X170050000Y-93900000D02*
G01*
X169350000Y-93900000D01*
X169350000Y-93300000D01*
X170050000Y-93300000D01*
X170050000Y-93900000D01*
G37*
X170050000Y-95800000D02*
X169350000Y-95800000D01*
X169350000Y-95200000D01*
X170050000Y-95200000D01*
X170050000Y-95800000D01*
G36*
X170050000Y-95800000D02*
G01*
X169350000Y-95800000D01*
X169350000Y-95200000D01*
X170050000Y-95200000D01*
X170050000Y-95800000D01*
G37*
D13*
X109815000Y-45500000D03*
X110785000Y-45500000D03*
D14*
X166100000Y-93290000D03*
X166100000Y-94310000D03*
D15*
X174800000Y-95520000D03*
X174800000Y-96480000D03*
D14*
X173600000Y-95490000D03*
X173600000Y-96510000D03*
X172300000Y-93390000D03*
X172300000Y-94410000D03*
X172300000Y-95490000D03*
X172300000Y-96510000D03*
X166100000Y-95290000D03*
X166100000Y-96310000D03*
D13*
X109800000Y-48000000D03*
X110770000Y-48000000D03*
D16*
X171000000Y-94410000D03*
X171000000Y-93390000D03*
M02*
